<svg xmlns="http://www.w3.org/2000/svg" width="404" height="123" viewBox="0 0 404 123"><rect x="0.5" y="0.5" width="403" height="122" rx="6" fill="none" stroke="#d1d9e0"/><path fill="#1f2328" d="M16.92 31.89L16.92 21.68L18.77 21.68L18.77 25.86L23.8 25.86L23.8 21.68L25.65 21.68L25.65 31.89L23.8 31.89L23.8 27.45L18.77 27.45L18.77 31.89L16.92 31.89M27.23 34.34L27.23 32.91L28.07 32.91Q28.54 32.91 28.82 32.72Q29.09 32.53 29.24 32.1L29.24 32.1L29.52 31.34L26.67 24.44L28.59 24.44L29.85 28.03L30.35 29.5L30.42 29.5L30.88 28.03L32.06 24.44L33.92 24.44L30.94 32.51Q30.57 33.5 29.98 33.92Q29.38 34.34 28.39 34.34L28.39 34.34L27.23 34.34M37.29 31.89Q36.4 31.89 35.96 31.46Q35.53 31.02 35.53 30.1L35.53 30.1L35.53 25.86L34.2 25.86L34.2 24.44L35.53 24.44L35.53 22.37L37.27 22.16L37.27 24.44L38.81 24.44L38.81 25.86L37.27 25.86L37.27 29.78Q37.27 30.14 37.43 30.29Q37.6 30.45 37.94 30.45L37.94 30.45L38.82 30.45L38.82 31.89L37.29 31.89M42.59 32.02Q41.69 32.02 41.02 31.55Q40.36 31.09 40 30.22Q39.65 29.36 39.65 28.17L39.65 28.17Q39.65 26.36 40.44 25.33Q41.23 24.3 42.59 24.3L42.59 24.3Q43.43 24.3 44.05 24.71Q44.67 25.13 44.92 25.84L44.92 25.84L44.98 25.84L45.05 24.44L46.7 24.44L46.7 31.89L45.05 31.89L44.98 30.48L44.92 30.48Q44.67 31.19 44.05 31.6Q43.43 32.02 42.59 32.02L42.59 32.02M43.19 30.57Q44 30.57 44.48 29.96Q44.97 29.36 44.97 28.46L44.97 28.46L44.97 27.87Q44.97 26.98 44.49 26.36Q44.01 25.74 43.22 25.74L43.22 25.74Q42.36 25.74 41.89 26.37Q41.42 27 41.42 28.17L41.42 28.17Q41.42 29.3 41.89 29.94Q42.35 30.57 43.19 30.57L43.19 30.57M48.33 31.89L48.33 21.45L50.08 21.45L50.08 31.89L48.33 31.89M54.92 32.02Q53.8 32.02 52.98 31.55Q52.16 31.08 51.73 30.22Q51.31 29.36 51.31 28.21L51.31 28.21Q51.31 27.03 51.74 26.15Q52.18 25.27 52.98 24.79Q53.79 24.3 54.86 24.3L54.86 24.3Q56.56 24.3 57.47 25.32Q58.38 26.35 58.38 28.05L58.38 28.05Q58.38 28.36 58.36 28.53L58.36 28.53L53.04 28.53Q53.04 29.55 53.55 30.12Q54.05 30.69 54.92 30.69L54.92 30.69Q56.24 30.69 56.59 29.61L56.59 29.61L58.29 29.61Q58.1 30.73 57.19 31.37Q56.28 32.02 54.92 32.02L54.92 32.02M53.06 27.42L56.61 27.41Q56.57 26.56 56.1 26.09Q55.63 25.63 54.85 25.63L54.85 25.63Q54.08 25.63 53.6 26.12Q53.13 26.6 53.06 27.42L53.06 27.42M62.68 34.28L62.68 24.44L64.34 24.44L64.4 25.84L64.48 25.84Q64.73 25.14 65.36 24.72Q65.98 24.3 66.81 24.3L66.81 24.3Q68.16 24.3 68.95 25.33Q69.75 26.36 69.75 28.17L69.75 28.17Q69.75 29.97 68.95 31Q68.16 32.03 66.81 32.03L66.81 32.03Q65.98 32.03 65.36 31.62Q64.73 31.2 64.48 30.53L64.48 30.53L64.41 30.53L64.43 34.28L62.68 34.28M66.15 30.57Q67.02 30.57 67.49 29.94Q67.97 29.3 67.97 28.17L67.97 28.17Q67.97 27.03 67.51 26.39Q67.04 25.76 66.19 25.76L66.19 25.76Q65.38 25.76 64.9 26.35Q64.43 26.93 64.43 27.84L64.43 27.84L64.43 28.5Q64.43 29.41 64.89 29.99Q65.35 30.57 66.15 30.57L66.15 30.57M71.08 31.89L71.08 21.45L72.83 21.45L72.83 31.89L71.08 31.89M76.94 32.02Q75.71 32.02 75.05 31.26Q74.39 30.5 74.39 29.08L74.39 29.08L74.39 24.44L76.14 24.44L76.14 28.64Q76.14 29.61 76.49 30.1Q76.84 30.59 77.61 30.59L77.61 30.59Q78.37 30.59 78.85 30.01Q79.34 29.43 79.34 28.52L79.34 28.52L79.34 24.44L81.07 24.44L81.07 31.89L79.41 31.89L79.35 30.41L79.27 30.41Q78.99 31.16 78.37 31.59Q77.75 32.02 76.94 32.02L76.94 32.02M85.93 34.51Q84.36 34.51 83.45 33.93Q82.54 33.35 82.42 32.27L82.42 32.27L84.25 32.27Q84.47 33.21 85.97 33.21L85.97 33.21Q86.85 33.21 87.25 32.8Q87.64 32.39 87.64 31.53L87.64 31.53L87.65 30.27L87.58 30.27Q87.33 30.94 86.7 31.32Q86.07 31.71 85.23 31.71L85.23 31.71Q84.35 31.71 83.69 31.27Q83.03 30.83 82.67 29.99Q82.3 29.16 82.3 28.01L82.3 28.01Q82.3 26.26 83.09 25.28Q83.89 24.3 85.23 24.3L85.23 24.3Q86.08 24.3 86.71 24.69Q87.33 25.07 87.6 25.76L87.6 25.76L87.67 25.76L87.71 24.44L89.37 24.44L89.37 31.27Q89.37 33 88.5 33.75Q87.62 34.51 85.93 34.51L85.93 34.51M85.83 30.28Q86.64 30.28 87.14 29.69Q87.64 29.1 87.64 28.26L87.64 28.26L87.64 27.73Q87.64 26.89 87.15 26.3Q86.66 25.72 85.85 25.72L85.85 25.72Q85.02 25.72 84.55 26.31Q84.08 26.91 84.08 28.01L84.08 28.01Q84.08 29.09 84.54 29.69Q85.01 30.28 85.83 30.28L85.83 30.28M90.96 31.89L90.96 24.44L92.71 24.44L92.71 31.89L90.96 31.89M91.84 23.39Q91.39 23.39 91.09 23.11Q90.79 22.82 90.79 22.38L90.79 22.38Q90.79 21.95 91.09 21.66Q91.39 21.38 91.84 21.38L91.84 21.38Q92.3 21.38 92.6 21.66Q92.9 21.95 92.9 22.38L92.9 22.38Q92.9 22.82 92.6 23.11Q92.3 23.39 91.84 23.39L91.84 23.39M94.3 31.89L94.3 24.44L95.98 24.44L96.04 25.9L96.11 25.9Q96.4 25.13 97.03 24.71Q97.66 24.3 98.46 24.3L98.46 24.3Q99.64 24.3 100.31 25.07Q100.98 25.83 100.98 27.41L100.98 27.41L100.98 31.89L99.24 31.89L99.24 27.8Q99.24 26.75 98.89 26.26Q98.54 25.76 97.79 25.76L97.79 25.76Q97.02 25.76 96.54 26.32Q96.05 26.89 96.05 27.77L96.05 27.77L96.05 31.89L94.3 31.89M105.26 32.03Q103.82 32.03 102.98 31.39Q102.13 30.76 102.07 29.65L102.07 29.65L103.78 29.65Q103.92 30.78 105.31 30.78L105.31 30.78Q105.96 30.78 106.31 30.54Q106.65 30.29 106.65 29.85L106.65 29.85Q106.65 29.36 106.31 29.15Q105.96 28.94 105.05 28.81L105.05 28.81Q103.58 28.6 102.93 28.12Q102.27 27.63 102.27 26.61L102.27 26.61Q102.27 25.56 103.09 24.93Q103.91 24.3 105.28 24.3L105.28 24.3Q106.58 24.3 107.36 24.9Q108.13 25.51 108.22 26.56L108.22 26.56L106.5 26.56Q106.44 26.04 106.11 25.79Q105.78 25.53 105.21 25.53L105.21 25.53Q104.63 25.53 104.31 25.78Q103.98 26.02 103.98 26.46L103.98 26.46Q103.98 26.91 104.35 27.1Q104.73 27.3 105.74 27.44L105.74 27.44Q107.11 27.62 107.75 28.12Q108.39 28.63 108.39 29.69L108.39 29.69Q108.39 30.8 107.55 31.41Q106.72 32.03 105.26 32.03L105.26 32.03"/><rect x="117.25" y="17" width="63.54" height="19" rx="9.5" fill="none" stroke="#d1d9e0"/><path fill="#59636e" d="M125.58 31.12L125.58 22.37L129.23 22.37Q130.68 22.37 131.48 23.1Q132.27 23.84 132.27 25.16L132.27 25.16Q132.27 26.46 131.46 27.2Q130.64 27.93 129.23 27.93L129.23 27.93L126.97 27.93L126.97 31.12L125.58 31.12M126.97 26.79L129.05 26.79Q129.91 26.79 130.37 26.37Q130.83 25.95 130.83 25.18L130.83 25.18Q130.83 24.41 130.37 23.99Q129.91 23.57 129.05 23.57L129.05 23.57L126.97 23.57L126.97 26.79M135.97 31.23Q134.54 31.23 133.73 30.35Q132.92 29.46 132.92 27.98L132.92 27.98Q132.92 26.97 133.29 26.22Q133.65 25.47 134.33 25.06Q135.01 24.65 135.92 24.65L135.92 24.65Q137.34 24.65 138.11 25.52Q138.87 26.38 138.87 27.82L138.87 27.82Q138.87 28.07 138.86 28.2L138.86 28.2L134.24 28.2Q134.24 29.16 134.7 29.69Q135.17 30.21 135.97 30.21L135.97 30.21Q136.57 30.21 136.97 29.94Q137.36 29.68 137.51 29.2L137.51 29.2L138.8 29.2Q138.63 30.14 137.87 30.68Q137.1 31.23 135.97 31.23L135.97 31.23M134.24 27.34L137.54 27.34Q137.51 26.52 137.07 26.1Q136.64 25.67 135.91 25.67L135.91 25.67Q135.2 25.67 134.75 26.12Q134.3 26.56 134.24 27.34L134.24 27.34M139.93 31.12L139.93 24.76L141.12 24.76L141.18 25.9L141.23 25.9Q141.43 25.31 141.9 25Q142.38 24.69 143.01 24.69L143.01 24.69L143.29 24.69L143.29 25.96Q143.21 25.95 143 25.95L143 25.95Q142.17 25.95 141.74 26.36Q141.3 26.78 141.25 27.56L141.25 27.56L141.25 31.12L139.93 31.12M146.47 31.24Q145.26 31.24 144.55 30.7Q143.84 30.16 143.78 29.22L143.78 29.22L145.08 29.22Q145.21 30.29 146.51 30.29L146.51 30.29Q147.11 30.29 147.43 30.06Q147.75 29.82 147.75 29.39L147.75 29.39Q147.75 29.07 147.62 28.89Q147.48 28.71 147.18 28.61Q146.88 28.5 146.31 28.42L146.31 28.42Q145.08 28.24 144.52 27.84Q143.96 27.44 143.96 26.58L143.96 26.58Q143.96 25.71 144.65 25.17Q145.33 24.64 146.46 24.64L146.46 24.64Q147.55 24.64 148.2 25.15Q148.86 25.66 148.93 26.56L148.93 26.56L147.62 26.56Q147.51 25.6 146.42 25.6L146.42 25.6Q145.88 25.6 145.57 25.83Q145.26 26.06 145.26 26.45L145.26 26.45Q145.26 26.74 145.41 26.91Q145.56 27.09 145.89 27.18Q146.22 27.28 146.82 27.36L146.82 27.36Q147.98 27.53 148.53 27.95Q149.07 28.37 149.07 29.27L149.07 29.27Q149.07 30.21 148.39 30.72Q147.71 31.24 146.47 31.24L146.47 31.24M152.93 31.23Q152.01 31.23 151.32 30.83Q150.62 30.42 150.24 29.69Q149.85 28.95 149.85 27.95L149.85 27.95Q149.85 26.97 150.23 26.22Q150.6 25.48 151.29 25.07Q151.99 24.65 152.93 24.65L152.93 24.65Q153.84 24.65 154.53 25.05Q155.22 25.46 155.6 26.2Q155.97 26.94 155.97 27.94L155.97 27.94Q155.97 28.91 155.6 29.66Q155.23 30.4 154.54 30.81Q153.85 31.23 152.93 31.23L152.93 31.23M152.91 30.12Q153.71 30.12 154.17 29.55Q154.63 28.98 154.63 27.94L154.63 27.94Q154.63 26.9 154.17 26.32Q153.72 25.74 152.93 25.74L152.93 25.74Q152.12 25.74 151.66 26.32Q151.2 26.9 151.2 27.95L151.2 27.95Q151.2 29 151.65 29.56Q152.11 30.12 152.91 30.12L152.91 30.12M157.13 31.12L157.13 24.76L158.39 24.76L158.43 26.04L158.49 26.04Q158.76 25.37 159.3 25.01Q159.85 24.65 160.55 24.65L160.55 24.65Q161.55 24.65 162.13 25.31Q162.71 25.96 162.71 27.32L162.71 27.32L162.71 31.12L161.4 31.12L161.4 27.6Q161.4 26.66 161.07 26.21Q160.74 25.76 160.05 25.76L160.05 25.76Q159.33 25.76 158.89 26.28Q158.45 26.8 158.45 27.63L158.45 27.63L158.45 31.12L157.13 31.12M166.37 31.23Q165.6 31.23 165.03 30.83Q164.46 30.44 164.15 29.69Q163.83 28.95 163.83 27.94L163.83 27.94Q163.83 26.92 164.15 26.18Q164.46 25.43 165.03 25.04Q165.6 24.65 166.37 24.65L166.37 24.65Q167.11 24.65 167.65 25.01Q168.19 25.37 168.42 26.01L168.42 26.01L168.47 26.01L168.51 24.76L169.76 24.76L169.76 31.12L168.51 31.12L168.47 29.86L168.42 29.86Q168.19 30.5 167.64 30.86Q167.1 31.23 166.37 31.23L166.37 31.23M166.81 30.12Q167.55 30.12 168 29.57Q168.44 29.02 168.44 28.22L168.44 28.22L168.44 27.68Q168.44 26.86 168 26.3Q167.57 25.74 166.83 25.74L166.83 25.74Q166.05 25.74 165.62 26.32Q165.19 26.9 165.19 27.94L165.19 27.94Q165.19 28.97 165.62 29.55Q166.04 30.12 166.81 30.12L166.81 30.12M171.23 31.12L171.23 22.17L172.55 22.17L172.55 31.12L171.23 31.12"/><path fill="#59636e" d="M16.9 58.62L16.9 49.87L22.91 49.87L22.91 50.86L18.02 50.86L18.02 53.69L22.35 53.69L22.35 54.61L18.02 54.61L18.02 57.62L22.92 57.62L22.92 58.62L16.9 58.62M26.7 58.73Q25.82 58.73 25.14 58.33Q24.46 57.92 24.09 57.19Q23.73 56.45 23.73 55.48L23.73 55.48Q23.73 54.5 24.1 53.76Q24.47 53.02 25.16 52.61Q25.84 52.2 26.75 52.2L26.75 52.2Q27.87 52.2 28.61 52.79Q29.34 53.39 29.49 54.38L29.49 54.38L28.41 54.38Q28.25 53.77 27.81 53.44Q27.36 53.11 26.72 53.11L26.72 53.11Q25.82 53.11 25.31 53.75Q24.81 54.4 24.81 55.48L24.81 55.48Q24.81 56.58 25.32 57.2Q25.83 57.82 26.7 57.82L26.7 57.82Q27.39 57.82 27.84 57.46Q28.3 57.1 28.43 56.47L28.43 56.47L29.51 56.47Q29.36 57.52 28.6 58.12Q27.84 58.73 26.7 58.73L26.7 58.73M33.38 58.73Q32.49 58.73 31.8 58.33Q31.12 57.92 30.75 57.19Q30.38 56.46 30.38 55.48L30.38 55.48Q30.38 54.5 30.74 53.77Q31.11 53.03 31.79 52.61Q32.46 52.2 33.38 52.2L33.38 52.2Q34.26 52.2 34.94 52.6Q35.61 53 35.99 53.74Q36.36 54.48 36.36 55.46L36.36 55.46Q36.36 56.44 36 57.17Q35.63 57.91 34.95 58.32Q34.28 58.73 33.38 58.73L33.38 58.73M33.36 57.82Q34.24 57.82 34.76 57.2Q35.27 56.58 35.27 55.46L35.27 55.46Q35.27 54.36 34.76 53.73Q34.25 53.1 33.38 53.1L33.38 53.1Q32.49 53.1 31.98 53.72Q31.47 54.35 31.47 55.48L31.47 55.48Q31.47 56.58 31.98 57.2Q32.49 57.82 33.36 57.82L33.36 57.82M37.61 58.62L37.61 52.31L38.63 52.31L38.67 53.63L38.73 53.63Q39 52.94 39.57 52.57Q40.13 52.2 40.83 52.2L40.83 52.2Q41.84 52.2 42.41 52.85Q42.99 53.5 42.99 54.86L42.99 54.86L42.99 58.62L41.93 58.62L41.93 55.09Q41.93 54.08 41.57 53.6Q41.2 53.11 40.46 53.11L40.46 53.11Q39.66 53.11 39.17 53.69Q38.68 54.26 38.68 55.18L38.68 55.18L38.68 58.62L37.61 58.62M47.19 58.73Q46.3 58.73 45.62 58.33Q44.93 57.92 44.56 57.19Q44.19 56.46 44.19 55.48L44.19 55.48Q44.19 54.5 44.55 53.77Q44.92 53.03 45.6 52.61Q46.28 52.2 47.19 52.2L47.19 52.2Q48.08 52.2 48.75 52.6Q49.42 53 49.8 53.74Q50.18 54.48 50.18 55.46L50.18 55.46Q50.18 56.44 49.81 57.17Q49.44 57.91 48.77 58.32Q48.09 58.73 47.19 58.73L47.19 58.73M47.18 57.82Q48.05 57.82 48.57 57.2Q49.08 56.58 49.08 55.46L49.08 55.46Q49.08 54.36 48.57 53.73Q48.06 53.1 47.19 53.1L47.19 53.1Q46.3 53.1 45.79 53.72Q45.28 54.35 45.28 55.48L45.28 55.48Q45.28 56.58 45.79 57.2Q46.3 57.82 47.18 57.82L47.18 57.82M51.42 58.62L51.42 52.31L52.44 52.31L52.48 53.57L52.53 53.57Q52.79 52.91 53.34 52.55Q53.9 52.2 54.57 52.2L54.57 52.2Q55.29 52.2 55.79 52.57Q56.28 52.93 56.5 53.66L56.5 53.66L56.56 53.66Q56.82 52.97 57.4 52.58Q57.98 52.2 58.7 52.2L58.7 52.2Q59.66 52.2 60.21 52.82Q60.77 53.45 60.77 54.79L60.77 54.79L60.77 58.62L59.72 58.62L59.72 55.01Q59.72 54.04 59.38 53.57Q59.04 53.11 58.32 53.11L58.32 53.11Q57.57 53.11 57.1 53.67Q56.63 54.23 56.63 55.1L56.63 55.1L56.63 58.62L55.56 58.62L55.56 55.01Q55.56 54.04 55.23 53.57Q54.89 53.11 54.18 53.11L54.18 53.11Q53.42 53.11 52.95 53.67Q52.48 54.23 52.48 55.1L52.48 55.1L52.48 58.62L51.42 58.62M62.01 60.72L62.01 59.83L62.68 59.83Q63.1 59.83 63.35 59.65Q63.59 59.47 63.74 59.08L63.74 59.08L64.07 58.19L61.61 52.31L62.79 52.31L64.02 55.56L64.58 57.02L64.62 57.02L65.13 55.56L66.29 52.31L67.43 52.31L64.76 59.35Q64.49 60.08 64.04 60.4Q63.59 60.72 62.85 60.72L62.85 60.72L62.01 60.72M68.46 58.62L68.46 49.87L71.99 49.87Q73.41 49.87 74.19 50.59Q74.98 51.31 74.98 52.61L74.98 52.61Q74.98 53.88 74.18 54.6Q73.38 55.32 71.98 55.32L71.98 55.32L69.58 55.32L69.58 58.62L68.46 58.62M69.58 54.38L71.85 54.38Q72.8 54.38 73.31 53.92Q73.83 53.46 73.83 52.63L73.83 52.63Q73.83 51.78 73.31 51.32Q72.8 50.86 71.85 50.86L71.85 50.86L69.58 50.86L69.58 54.38M76.1 58.62L76.1 49.67L77.16 49.67L77.16 58.62L76.1 58.62M80.86 58.73Q79.82 58.73 79.25 58.08Q78.68 57.43 78.68 56.21L78.68 56.21L78.68 52.31L79.74 52.31L79.74 55.94Q79.74 56.87 80.1 57.35Q80.46 57.83 81.23 57.83L81.23 57.83Q82.01 57.83 82.5 57.24Q83 56.65 83 55.69L83 55.69L83 52.31L84.05 52.31L84.05 58.62L83.04 58.62L83 57.28L82.95 57.28Q82.71 57.96 82.15 58.34Q81.59 58.73 80.86 58.73L80.86 58.73M87.81 58.74Q86.63 58.74 85.94 58.22Q85.25 57.7 85.19 56.76L85.19 56.76L86.25 56.76Q86.32 57.36 86.73 57.65Q87.15 57.95 87.83 57.95L87.83 57.95Q88.52 57.95 88.88 57.68Q89.25 57.42 89.25 56.93L89.25 56.93Q89.25 56.41 88.91 56.19Q88.56 55.97 87.69 55.85L87.69 55.85Q86.46 55.67 85.92 55.28Q85.38 54.9 85.38 54.06L85.38 54.06Q85.38 53.21 86.04 52.7Q86.69 52.19 87.77 52.19L87.77 52.19Q88.83 52.19 89.45 52.69Q90.08 53.18 90.15 54.06L90.15 54.06L89.09 54.06Q88.97 52.98 87.75 52.98L87.75 52.98Q87.14 52.98 86.78 53.24Q86.43 53.51 86.43 53.95L86.43 53.95Q86.43 54.42 86.79 54.63Q87.15 54.84 88.06 54.97L88.06 54.97Q89.21 55.13 89.76 55.54Q90.32 55.94 90.32 56.84L90.32 56.84Q90.32 57.74 89.65 58.24Q88.98 58.74 87.81 58.74L87.81 58.74M91.11 60.49Q91.84 59.23 91.98 58.67L91.98 58.67Q91.95 58.68 91.89 58.68L91.89 58.68Q91.6 58.68 91.42 58.5Q91.24 58.32 91.24 58.03L91.24 58.03Q91.24 57.72 91.44 57.52Q91.65 57.32 91.96 57.32L91.96 57.32Q92.3 57.32 92.51 57.57Q92.72 57.82 92.72 58.21L92.72 58.21Q92.72 58.62 92.46 59.24Q92.2 59.87 91.82 60.49L91.82 60.49L91.11 60.49M96.84 58.62L96.84 49.87L97.96 49.87L97.96 53.62L102.89 53.62L102.89 49.87L104.01 49.87L104.01 58.62L102.89 58.62L102.89 54.6L97.96 54.6L97.96 58.62L96.84 58.62M105.45 60.72L105.45 59.83L106.12 59.83Q106.54 59.83 106.79 59.65Q107.03 59.47 107.18 59.08L107.18 59.08L107.51 58.19L105.05 52.31L106.23 52.31L107.46 55.56L108.02 57.02L108.06 57.02L108.57 55.56L109.73 52.31L110.87 52.31L108.2 59.35Q107.93 60.08 107.48 60.4Q107.03 60.72 106.29 60.72L106.29 60.72L105.45 60.72M113.72 58.62Q113.03 58.62 112.7 58.29Q112.36 57.96 112.36 57.23L112.36 57.23L112.36 53.18L111.16 53.18L111.16 52.31L112.36 52.31L112.36 50.46L113.42 50.3L113.42 52.31L114.83 52.31L114.83 53.18L113.42 53.18L113.42 57.05Q113.42 57.4 113.57 57.55Q113.73 57.71 114.06 57.71L114.06 57.71L114.84 57.71L114.84 58.62L113.72 58.62M118.14 58.73Q117.39 58.73 116.82 58.33Q116.25 57.94 115.94 57.2Q115.62 56.46 115.62 55.46L115.62 55.46Q115.62 54.46 115.94 53.71Q116.25 52.97 116.82 52.58Q117.39 52.19 118.14 52.19L118.14 52.19Q118.91 52.19 119.48 52.57Q120.04 52.96 120.27 53.6L120.27 53.6L120.3 53.6L120.34 52.31L121.35 52.31L121.35 58.62L120.34 58.62L120.3 57.3L120.27 57.3Q120.03 57.97 119.47 58.35Q118.91 58.73 118.14 58.73L118.14 58.73M118.49 57.82Q119.03 57.82 119.45 57.53Q119.86 57.25 120.08 56.78Q120.29 56.32 120.29 55.76L120.29 55.76L120.29 55.16Q120.29 54.61 120.08 54.14Q119.86 53.66 119.45 53.38Q119.04 53.09 118.5 53.09L118.5 53.09Q117.66 53.09 117.19 53.71Q116.72 54.34 116.72 55.46L116.72 55.46Q116.72 56.57 117.19 57.19Q117.66 57.82 118.49 57.82L118.49 57.82M122.91 58.62L122.91 49.67L123.98 49.67L123.98 58.62L122.91 58.62M128.14 58.73Q126.76 58.73 125.97 57.85Q125.19 56.98 125.19 55.49L125.19 55.49Q125.19 54.49 125.54 53.75Q125.9 53.02 126.56 52.61Q127.22 52.2 128.1 52.2L128.1 52.2Q129.08 52.2 129.74 52.63Q130.4 53.06 130.71 53.84Q131.03 54.62 130.97 55.66L130.97 55.66L126.24 55.66Q126.26 56.72 126.77 57.31Q127.28 57.89 128.14 57.89L128.14 57.89Q128.81 57.89 129.25 57.59Q129.69 57.29 129.86 56.74L129.86 56.74L130.9 56.74Q130.72 57.67 129.98 58.2Q129.24 58.73 128.14 58.73L128.14 58.73M126.26 54.91L129.9 54.91Q129.86 54.01 129.38 53.53Q128.9 53.04 128.1 53.04L128.1 53.04Q127.31 53.04 126.81 53.54Q126.32 54.04 126.26 54.91L126.26 54.91M132.26 58.62L132.26 49.87L135.69 49.87Q136.9 49.87 137.78 50.41Q138.65 50.95 139.11 51.94Q139.58 52.92 139.58 54.25L139.58 54.25Q139.58 55.57 139.11 56.56Q138.65 57.55 137.78 58.09Q136.9 58.62 135.69 58.62L135.69 58.62L132.26 58.62M135.53 57.62Q136.9 57.62 137.66 56.74Q138.42 55.85 138.42 54.23L138.42 54.23Q138.42 52.6 137.66 51.73Q136.89 50.86 135.53 50.86L135.53 50.86L133.37 50.86L133.37 57.62L135.53 57.62M142.94 58.73Q141.89 58.73 141.32 58.08Q140.75 57.43 140.75 56.21L140.75 56.21L140.75 52.31L141.82 52.31L141.82 55.94Q141.82 56.87 142.18 57.35Q142.54 57.83 143.31 57.83L143.31 57.83Q144.09 57.83 144.58 57.24Q145.07 56.65 145.07 55.69L145.07 55.69L145.07 52.31L146.13 52.31L146.13 58.62L145.12 58.62L145.07 57.28L145.02 57.28Q144.78 57.96 144.23 58.34Q143.67 58.73 142.94 58.73L142.94 58.73M147.66 58.62L147.66 52.31L148.68 52.31L148.72 53.63L148.78 53.63Q149.06 52.94 149.62 52.57Q150.18 52.2 150.88 52.2L150.88 52.2Q151.89 52.2 152.46 52.85Q153.04 53.5 153.04 54.86L153.04 54.86L153.04 58.62L151.98 58.62L151.98 55.09Q151.98 54.08 151.62 53.6Q151.25 53.11 150.51 53.11L150.51 53.11Q149.72 53.11 149.22 53.69Q148.73 54.26 148.73 55.18L148.73 55.18L148.73 58.62L147.66 58.62M157.2 60.85Q155.93 60.85 155.19 60.38Q154.46 59.92 154.32 59L154.32 59L155.45 59Q155.68 60.02 157.23 60.02L157.23 60.02Q158.1 60.02 158.5 59.62Q158.9 59.21 158.9 58.32L158.9 58.32L158.91 57.16L158.86 57.16Q158.63 57.78 158.07 58.15Q157.5 58.51 156.74 58.51L156.74 58.51Q155.99 58.51 155.42 58.13Q154.85 57.76 154.54 57.04Q154.23 56.33 154.23 55.36L154.23 55.36Q154.23 54.37 154.54 53.66Q154.85 52.94 155.42 52.57Q155.99 52.19 156.74 52.19L156.74 52.19Q157.5 52.19 158.07 52.54Q158.63 52.9 158.87 53.53L158.87 53.53L158.92 53.53L158.94 52.31L159.96 52.31L159.96 58.19Q159.96 59.58 159.27 60.22Q158.57 60.85 157.2 60.85L157.2 60.85M157.1 57.61Q157.64 57.61 158.04 57.34Q158.45 57.07 158.67 56.62Q158.9 56.16 158.9 55.63L158.9 55.63L158.9 55.03Q158.9 54.52 158.68 54.07Q158.46 53.62 158.06 53.35Q157.65 53.08 157.1 53.08L157.1 53.08Q156.27 53.08 155.79 53.67Q155.32 54.26 155.32 55.36L155.32 55.36Q155.32 56.42 155.79 57.02Q156.27 57.61 157.1 57.61L157.1 57.61M164.09 58.73Q162.71 58.73 161.93 57.85Q161.14 56.98 161.14 55.49L161.14 55.49Q161.14 54.49 161.49 53.75Q161.85 53.02 162.51 52.61Q163.17 52.2 164.06 52.2L164.06 52.2Q165.03 52.2 165.69 52.63Q166.35 53.06 166.67 53.84Q166.98 54.62 166.92 55.66L166.92 55.66L162.2 55.66Q162.21 56.72 162.72 57.31Q163.23 57.89 164.09 57.89L164.09 57.89Q164.76 57.89 165.2 57.59Q165.64 57.29 165.81 56.74L165.81 56.74L166.85 56.74Q166.67 57.67 165.93 58.2Q165.2 58.73 164.09 58.73L164.09 58.73M162.21 54.91L165.86 54.91Q165.81 54.01 165.33 53.53Q164.85 53.04 164.06 53.04L164.06 53.04Q163.26 53.04 162.77 53.54Q162.27 54.04 162.21 54.91L162.21 54.91M170.8 58.73Q169.91 58.73 169.23 58.33Q168.54 57.92 168.17 57.19Q167.8 56.46 167.8 55.48L167.8 55.48Q167.8 54.5 168.17 53.77Q168.53 53.03 169.21 52.61Q169.89 52.2 170.8 52.2L170.8 52.2Q171.69 52.2 172.36 52.6Q173.03 53 173.41 53.74Q173.79 54.48 173.79 55.46L173.79 55.46Q173.79 56.44 173.42 57.17Q173.06 57.91 172.38 58.32Q171.7 58.73 170.8 58.73L170.8 58.73M170.79 57.82Q171.66 57.82 172.18 57.2Q172.7 56.58 172.7 55.46L172.7 55.46Q172.7 54.36 172.19 53.73Q171.68 53.1 170.8 53.1L170.8 53.1Q169.91 53.1 169.4 53.72Q168.89 54.35 168.89 55.48L168.89 55.48Q168.89 56.58 169.4 57.2Q169.91 57.82 170.79 57.82L170.79 57.82M175.04 58.62L175.04 52.31L176.06 52.31L176.09 53.63L176.15 53.63Q176.43 52.94 176.99 52.57Q177.56 52.2 178.25 52.2L178.25 52.2Q179.26 52.2 179.84 52.85Q180.41 53.5 180.41 54.86L180.41 54.86L180.41 58.62L179.36 58.62L179.36 55.09Q179.36 54.08 178.99 53.6Q178.62 53.11 177.88 53.11L177.88 53.11Q177.09 53.11 176.6 53.69Q176.1 54.26 176.1 55.18L176.1 55.18L176.1 58.62L175.04 58.62M184.11 58.74Q182.93 58.74 182.24 58.22Q181.55 57.7 181.49 56.76L181.49 56.76L182.55 56.76Q182.62 57.36 183.03 57.65Q183.45 57.95 184.13 57.95L184.13 57.95Q184.82 57.95 185.18 57.68Q185.55 57.42 185.55 56.93L185.55 56.93Q185.55 56.41 185.21 56.19Q184.86 55.97 183.99 55.85L183.99 55.85Q182.76 55.67 182.22 55.28Q181.68 54.9 181.68 54.06L181.68 54.06Q181.68 53.21 182.34 52.7Q182.99 52.19 184.07 52.19L184.07 52.19Q185.13 52.19 185.75 52.69Q186.38 53.18 186.45 54.06L186.45 54.06L185.39 54.06Q185.27 52.98 184.05 52.98L184.05 52.98Q183.44 52.98 183.08 53.24Q182.73 53.51 182.73 53.95L182.73 53.95Q182.73 54.42 183.09 54.63Q183.45 54.84 184.36 54.97L184.36 54.97Q185.51 55.13 186.06 55.54Q186.62 55.94 186.62 56.84L186.62 56.84Q186.62 57.74 185.95 58.24Q185.28 58.74 184.11 58.74L184.11 58.74M187.41 60.49Q188.14 59.23 188.28 58.67L188.28 58.67Q188.25 58.68 188.19 58.68L188.19 58.68Q187.9 58.68 187.72 58.5Q187.54 58.32 187.54 58.03L187.54 58.03Q187.54 57.72 187.74 57.52Q187.95 57.32 188.26 57.32L188.26 57.32Q188.6 57.32 188.81 57.57Q189.02 57.82 189.02 58.21L189.02 58.21Q189.02 58.62 188.76 59.24Q188.5 59.87 188.12 60.49L188.12 60.49L187.41 60.49M196.02 58.73Q194.43 58.73 193.58 58Q192.72 57.26 192.66 56L192.66 56L193.82 56Q193.88 56.88 194.43 57.35Q194.98 57.83 196.06 57.83L196.06 57.83Q197.02 57.83 197.57 57.43Q198.11 57.04 198.11 56.32L198.11 56.32Q198.11 55.8 197.89 55.49Q197.67 55.18 197.18 54.98Q196.7 54.79 195.81 54.62L195.81 54.62Q194.3 54.35 193.59 53.81Q192.89 53.28 192.89 52.21L192.89 52.21Q192.89 51.48 193.26 50.93Q193.64 50.38 194.33 50.08Q195.03 49.78 195.95 49.78L195.95 49.78Q197.33 49.78 198.13 50.42Q198.93 51.07 199.01 52.19L199.01 52.19L197.87 52.19Q197.79 51.44 197.27 51.05Q196.76 50.66 195.9 50.66L195.9 50.66Q195.04 50.66 194.55 51.04Q194.06 51.42 194.06 52.07L194.06 52.07Q194.06 52.55 194.27 52.82Q194.49 53.1 194.97 53.27Q195.45 53.45 196.37 53.62L196.37 53.62Q197.33 53.8 197.95 54.06Q198.57 54.32 198.92 54.85Q199.28 55.37 199.28 56.23L199.28 56.23Q199.28 57.38 198.41 58.06Q197.55 58.73 196.02 58.73L196.02 58.73M200.51 58.62L200.51 49.67L201.57 49.67L201.57 53.6L201.62 53.6Q201.88 52.94 202.46 52.57Q203.03 52.2 203.73 52.2L203.73 52.2Q204.74 52.2 205.31 52.85Q205.89 53.5 205.89 54.86L205.89 54.86L205.89 58.62L204.83 58.62L204.83 55.1Q204.83 54.08 204.47 53.6Q204.11 53.11 203.36 53.11L203.36 53.11Q202.55 53.11 202.06 53.69Q201.57 54.28 201.57 55.19L201.57 55.19L201.57 58.62L200.51 58.62M210.09 58.73Q209.2 58.73 208.52 58.33Q207.83 57.92 207.46 57.19Q207.09 56.46 207.09 55.48L207.09 55.48Q207.09 54.5 207.45 53.77Q207.82 53.03 208.5 52.61Q209.18 52.2 210.09 52.2L210.09 52.2Q210.98 52.2 211.65 52.6Q212.32 53 212.7 53.74Q213.08 54.48 213.08 55.46L213.08 55.46Q213.08 56.44 212.71 57.17Q212.34 57.91 211.67 58.32Q210.99 58.73 210.09 58.73L210.09 58.73M210.08 57.82Q210.95 57.82 211.47 57.2Q211.98 56.58 211.98 55.46L211.98 55.46Q211.98 54.36 211.47 53.73Q210.96 53.1 210.09 53.1L210.09 53.1Q209.2 53.1 208.69 53.72Q208.18 54.35 208.18 55.48L208.18 55.48Q208.18 56.58 208.69 57.2Q209.2 57.82 210.08 57.82L210.08 57.82M214.34 60.7L214.34 52.31L215.34 52.31L215.38 53.62L215.44 53.62Q215.67 52.97 216.23 52.58Q216.78 52.2 217.54 52.2L217.54 52.2Q218.3 52.2 218.87 52.59Q219.44 52.98 219.75 53.72Q220.06 54.46 220.06 55.46L220.06 55.46Q220.06 56.47 219.75 57.21Q219.44 57.95 218.87 58.34Q218.3 58.73 217.54 58.73L217.54 58.73Q216.77 58.73 216.22 58.36Q215.67 57.98 215.44 57.35L215.44 57.35L215.39 57.35L215.4 60.7L214.34 60.7M217.17 57.84Q218.01 57.84 218.49 57.21Q218.97 56.58 218.97 55.46L218.97 55.46Q218.97 54.36 218.49 53.73Q218.02 53.1 217.19 53.1L217.19 53.1Q216.36 53.1 215.88 53.69Q215.4 54.28 215.4 55.13L215.4 55.13L215.4 55.81Q215.4 56.66 215.88 57.25Q216.36 57.84 217.17 57.84L217.17 57.84M221 60.49Q221.73 59.23 221.87 58.67L221.87 58.67Q221.84 58.68 221.78 58.68L221.78 58.68Q221.49 58.68 221.31 58.5Q221.13 58.32 221.13 58.03L221.13 58.03Q221.13 57.72 221.33 57.52Q221.54 57.32 221.85 57.32L221.85 57.32Q222.18 57.32 222.39 57.57Q222.6 57.82 222.6 58.21L222.6 58.21Q222.6 58.62 222.35 59.24Q222.09 59.87 221.7 60.49L221.7 60.49L221 60.49M226.72 58.62L226.72 49.87L230.25 49.87Q231.66 49.87 232.45 50.59Q233.24 51.31 233.24 52.61L233.24 52.61Q233.24 53.88 232.44 54.6Q231.64 55.32 230.24 55.32L230.24 55.32L227.84 55.32L227.84 58.62L226.72 58.62M227.84 54.38L230.1 54.38Q231.05 54.38 231.57 53.92Q232.08 53.46 232.08 52.63L232.08 52.63Q232.08 51.78 231.57 51.32Q231.05 50.86 230.1 50.86L230.1 50.86L227.84 50.86L227.84 54.38M234.35 58.62L234.35 49.67L235.42 49.67L235.42 58.62L234.35 58.62M239.25 58.73Q238.49 58.73 237.92 58.33Q237.35 57.94 237.04 57.2Q236.73 56.46 236.73 55.46L236.73 55.46Q236.73 54.46 237.04 53.71Q237.35 52.97 237.92 52.58Q238.49 52.19 239.25 52.19L239.25 52.19Q240.02 52.19 240.58 52.57Q241.14 52.96 241.37 53.6L241.37 53.6L241.41 53.6L241.44 52.31L242.45 52.31L242.45 58.62L241.44 58.62L241.41 57.3L241.37 57.3Q241.13 57.97 240.57 58.35Q240.02 58.73 239.25 58.73L239.25 58.73M239.6 57.82Q240.14 57.82 240.55 57.53Q240.96 57.25 241.18 56.78Q241.4 56.32 241.4 55.76L241.4 55.76L241.4 55.16Q241.4 54.61 241.18 54.14Q240.96 53.66 240.56 53.38Q240.15 53.09 239.61 53.09L239.61 53.09Q238.77 53.09 238.29 53.71Q237.82 54.34 237.82 55.46L237.82 55.46Q237.82 56.57 238.29 57.19Q238.77 57.82 239.6 57.82L239.6 57.82M243.75 60.72L243.75 59.83L244.42 59.83Q244.84 59.83 245.09 59.65Q245.33 59.47 245.48 59.08L245.48 59.08L245.81 58.19L243.35 52.31L244.53 52.31L245.76 55.56L246.32 57.02L246.36 57.02L246.87 55.56L248.03 52.31L249.17 52.31L246.5 59.35Q246.23 60.08 245.78 60.4Q245.33 60.72 244.59 60.72L244.59 60.72L243.75 60.72M252.68 58.73Q251.3 58.73 250.51 57.85Q249.72 56.98 249.72 55.49L249.72 55.49Q249.72 54.49 250.08 53.75Q250.43 53.02 251.09 52.61Q251.75 52.2 252.64 52.2L252.64 52.2Q253.61 52.2 254.27 52.63Q254.93 53.06 255.25 53.84Q255.57 54.62 255.51 55.66L255.51 55.66L250.78 55.66Q250.79 56.72 251.3 57.31Q251.81 57.89 252.68 57.89L252.68 57.89Q253.35 57.89 253.79 57.59Q254.22 57.29 254.39 56.74L254.39 56.74L255.44 56.74Q255.26 57.67 254.52 58.2Q253.78 58.73 252.68 58.73L252.68 58.73M250.79 54.91L254.44 54.91Q254.39 54.01 253.91 53.53Q253.43 53.04 252.64 53.04L252.64 53.04Q251.85 53.04 251.35 53.54Q250.85 54.04 250.79 54.91L250.79 54.91M256.65 58.62L256.65 52.31L257.61 52.31L257.67 53.47L257.7 53.47Q257.91 52.87 258.4 52.55Q258.89 52.22 259.54 52.22L259.54 52.22L259.83 52.24L259.83 53.27Q259.74 53.26 259.53 53.26L259.53 53.26Q258.71 53.26 258.24 53.69Q257.78 54.12 257.72 54.92L257.72 54.92L257.72 58.62L256.65 58.62M260.92 58.62L260.92 49.87L262.04 49.87L262.04 57.6L266.49 57.6L266.49 58.62L260.92 58.62M267.35 58.62L267.35 52.31L268.42 52.31L268.42 58.62L267.35 58.62M267.89 51.19Q267.58 51.19 267.38 51Q267.18 50.81 267.18 50.51L267.18 50.51Q267.18 50.21 267.38 50.02Q267.58 49.82 267.89 49.82L267.89 49.82Q268.2 49.82 268.4 50.02Q268.6 50.21 268.6 50.51L268.6 50.51Q268.6 50.81 268.4 51Q268.2 51.19 267.89 51.19L267.89 51.19M272.18 58.74Q271 58.74 270.31 58.22Q269.62 57.7 269.56 56.76L269.56 56.76L270.62 56.76Q270.69 57.36 271.1 57.65Q271.52 57.95 272.2 57.95L272.2 57.95Q272.88 57.95 273.25 57.68Q273.62 57.42 273.62 56.93L273.62 56.93Q273.62 56.41 273.27 56.19Q272.93 55.97 272.06 55.85L272.06 55.85Q270.83 55.67 270.29 55.28Q269.75 54.9 269.75 54.06L269.75 54.06Q269.75 53.21 270.41 52.7Q271.06 52.19 272.14 52.19L272.14 52.19Q273.2 52.19 273.82 52.69Q274.44 53.18 274.52 54.06L274.52 54.06L273.46 54.06Q273.34 52.98 272.12 52.98L272.12 52.98Q271.5 52.98 271.15 53.24Q270.8 53.51 270.8 53.95L270.8 53.95Q270.8 54.42 271.16 54.63Q271.52 54.84 272.43 54.97L272.43 54.97Q273.58 55.13 274.13 55.54Q274.68 55.94 274.68 56.84L274.68 56.84Q274.68 57.74 274.02 58.24Q273.35 58.74 272.18 58.74L272.18 58.74M277.78 58.62Q277.1 58.62 276.76 58.29Q276.42 57.96 276.42 57.23L276.42 57.23L276.42 53.18L275.22 53.18L275.22 52.31L276.42 52.31L276.42 50.46L277.48 50.3L277.48 52.31L278.9 52.31L278.9 53.18L277.48 53.18L277.48 57.05Q277.48 57.4 277.64 57.55Q277.79 57.71 278.13 57.71L278.13 57.71L278.91 57.71L278.91 58.62L277.78 58.62M284.93 58.73Q284.18 58.73 283.61 58.33Q283.04 57.94 282.72 57.2Q282.41 56.46 282.41 55.46L282.41 55.46Q282.41 54.46 282.72 53.71Q283.04 52.97 283.61 52.58Q284.18 52.19 284.93 52.19L284.93 52.19Q285.7 52.19 286.26 52.57Q286.83 52.96 287.06 53.6L287.06 53.6L287.09 53.6L287.13 52.31L288.14 52.31L288.14 58.62L287.13 58.62L287.09 57.3L287.06 57.3Q286.82 57.97 286.26 58.35Q285.7 58.73 284.93 58.73L284.93 58.73M285.28 57.82Q285.82 57.82 286.23 57.53Q286.65 57.25 286.86 56.78Q287.08 56.32 287.08 55.76L287.08 55.76L287.08 55.16Q287.08 54.61 286.86 54.14Q286.65 53.66 286.24 53.38Q285.83 53.09 285.29 53.09L285.29 53.09Q284.45 53.09 283.98 53.71Q283.5 54.34 283.5 55.46L283.5 55.46Q283.5 56.57 283.98 57.19Q284.45 57.82 285.28 57.82L285.28 57.82M289.67 58.62L289.67 52.31L290.69 52.31L290.73 53.63L290.79 53.63Q291.06 52.94 291.63 52.57Q292.19 52.2 292.89 52.2L292.89 52.2Q293.9 52.2 294.47 52.85Q295.05 53.5 295.05 54.86L295.05 54.86L295.05 58.62L293.99 58.62L293.99 55.09Q293.99 54.08 293.63 53.6Q293.26 53.11 292.52 53.11L292.52 53.11Q291.72 53.11 291.23 53.69Q290.74 54.26 290.74 55.18L290.74 55.18L290.74 58.62L289.67 58.62M298.8 58.73Q298.05 58.73 297.48 58.33Q296.91 57.94 296.6 57.2Q296.28 56.46 296.28 55.46L296.28 55.46Q296.28 54.46 296.6 53.71Q296.91 52.97 297.48 52.58Q298.05 52.19 298.8 52.19L298.8 52.19Q299.57 52.19 300.13 52.57Q300.69 52.96 300.9 53.59L300.9 53.59L300.95 53.59L300.94 49.67L302.01 49.67L302.01 58.62L301 58.62L300.96 57.32L300.9 57.32Q300.69 57.96 300.12 58.34Q299.56 58.73 298.8 58.73L298.8 58.73M299.15 57.82Q299.7 57.82 300.11 57.54Q300.51 57.26 300.72 56.8Q300.94 56.33 300.94 55.78L300.94 55.78L300.94 55.15Q300.94 54.59 300.73 54.12Q300.52 53.65 300.12 53.37Q299.72 53.09 299.18 53.09L299.18 53.09Q298.32 53.09 297.85 53.71Q297.38 54.34 297.38 55.46L297.38 55.46Q297.38 56.57 297.84 57.19Q298.31 57.82 299.15 57.82L299.15 57.82M306.28 58.62L306.28 52.31L307.3 52.31L307.34 53.57L307.38 53.57Q307.65 52.91 308.2 52.55Q308.75 52.2 309.42 52.2L309.42 52.2Q310.14 52.2 310.64 52.57Q311.14 52.93 311.36 53.66L311.36 53.66L311.42 53.66Q311.68 52.97 312.26 52.58Q312.83 52.2 313.55 52.2L313.55 52.2Q314.51 52.2 315.07 52.82Q315.63 53.45 315.63 54.79L315.63 54.79L315.63 58.62L314.57 58.62L314.57 55.01Q314.57 54.04 314.24 53.57Q313.9 53.11 313.18 53.11L313.18 53.11Q312.42 53.11 311.96 53.67Q311.49 54.23 311.49 55.1L311.49 55.1L311.49 58.62L310.42 58.62L310.42 55.01Q310.42 54.04 310.08 53.57Q309.75 53.11 309.04 53.11L309.04 53.11Q308.27 53.11 307.8 53.67Q307.34 54.23 307.34 55.1L307.34 55.1L307.34 58.62L306.28 58.62M319.83 58.73Q318.94 58.73 318.26 58.33Q317.57 57.92 317.2 57.19Q316.83 56.46 316.83 55.48L316.83 55.48Q316.83 54.5 317.19 53.77Q317.56 53.03 318.24 52.61Q318.92 52.2 319.83 52.2L319.83 52.2Q320.72 52.2 321.39 52.6Q322.06 53 322.44 53.74Q322.82 54.48 322.82 55.46L322.82 55.46Q322.82 56.44 322.45 57.17Q322.08 57.91 321.41 58.32Q320.73 58.73 319.83 58.73L319.83 58.73M319.82 57.82Q320.69 57.82 321.21 57.2Q321.72 56.58 321.72 55.46L321.72 55.46Q321.72 54.36 321.21 53.73Q320.7 53.1 319.83 53.1L319.83 53.1Q318.94 53.1 318.43 53.72Q317.92 54.35 317.92 55.48L317.92 55.48Q317.92 56.58 318.43 57.2Q318.94 57.82 319.82 57.82L319.82 57.82M324.05 58.62L324.05 52.31L325.01 52.31L325.07 53.47L325.11 53.47Q325.31 52.87 325.8 52.55Q326.3 52.22 326.94 52.22L326.94 52.22L327.23 52.24L327.23 53.27Q327.15 53.26 326.93 53.26L326.93 53.26Q326.12 53.26 325.65 53.69Q325.18 54.12 325.12 54.92L325.12 54.92L325.12 58.62L324.05 58.62M330.78 58.73Q329.4 58.73 328.62 57.85Q327.83 56.98 327.83 55.49L327.83 55.49Q327.83 54.49 328.19 53.75Q328.54 53.02 329.2 52.61Q329.86 52.2 330.75 52.2L330.75 52.2Q331.72 52.2 332.38 52.63Q333.04 53.06 333.36 53.84Q333.68 54.62 333.62 55.66L333.62 55.66L328.89 55.66Q328.9 56.72 329.41 57.31Q329.92 57.89 330.78 57.89L330.78 57.89Q331.46 57.89 331.89 57.59Q332.33 57.29 332.5 56.74L332.5 56.74L333.54 56.74Q333.36 57.67 332.63 58.2Q331.89 58.73 330.78 58.73L330.78 58.73M328.9 54.91L332.55 54.91Q332.5 54.01 332.02 53.53Q331.54 53.04 330.75 53.04L330.75 53.04Q329.96 53.04 329.46 53.54Q328.96 54.04 328.9 54.91L328.9 54.91M334.41 60.49Q335.14 59.23 335.28 58.67L335.28 58.67Q335.25 58.68 335.19 58.68L335.19 58.68Q334.9 58.68 334.72 58.5Q334.54 58.32 334.54 58.03L334.54 58.03Q334.54 57.72 334.74 57.52Q334.95 57.32 335.26 57.32L335.26 57.32Q335.6 57.32 335.81 57.57Q336.02 57.82 336.02 58.21L336.02 58.21Q336.02 58.62 335.76 59.24Q335.5 59.87 335.12 60.49L335.12 60.49L334.41 60.49M343.22 58.73Q342.45 58.73 341.9 58.36Q341.34 57.98 341.12 57.34L341.12 57.34L341.06 57.34L341.02 58.62L340.01 58.62L340.01 49.67L341.08 49.67L341.07 53.62L341.12 53.62Q341.33 52.98 341.9 52.59Q342.46 52.2 343.22 52.2L343.22 52.2Q343.97 52.2 344.54 52.6Q345.11 52.99 345.42 53.73Q345.74 54.47 345.74 55.46L345.74 55.46Q345.74 56.47 345.42 57.21Q345.11 57.95 344.54 58.34Q343.97 58.73 343.22 58.73L343.22 58.73M342.84 57.84Q343.68 57.84 344.16 57.21Q344.64 56.58 344.64 55.46L344.64 55.46Q344.64 54.36 344.18 53.73Q343.71 53.1 342.87 53.1L342.87 53.1Q342.04 53.1 341.56 53.69Q341.08 54.28 341.08 55.13L341.08 55.13L341.08 55.81Q341.08 56.66 341.56 57.25Q342.04 57.84 342.84 57.84L342.84 57.84M349.17 58.73Q348.12 58.73 347.55 58.08Q346.98 57.43 346.98 56.21L346.98 56.21L346.98 52.31L348.05 52.31L348.05 55.94Q348.05 56.87 348.41 57.35Q348.77 57.83 349.54 57.83L349.54 57.83Q350.32 57.83 350.81 57.24Q351.3 56.65 351.3 55.69L351.3 55.69L351.3 52.31L352.36 52.31L352.36 58.62L351.35 58.62L351.3 57.28L351.26 57.28Q351.02 57.96 350.46 58.34Q349.9 58.73 349.17 58.73L349.17 58.73M353.9 58.62L353.9 52.31L354.96 52.31L354.96 58.62L353.9 58.62M354.44 51.19Q354.12 51.19 353.93 51Q353.73 50.81 353.73 50.51L353.73 50.51Q353.73 50.21 353.93 50.02Q354.12 49.82 354.44 49.82L354.44 49.82Q354.75 49.82 354.95 50.02Q355.14 50.21 355.14 50.51L355.14 50.51Q355.14 50.81 354.95 51Q354.75 51.19 354.44 51.19L354.44 51.19M356.52 58.62L356.52 49.67L357.59 49.67L357.59 58.62L356.52 58.62M361.1 58.62Q360.41 58.62 360.08 58.29Q359.74 57.96 359.74 57.23L359.74 57.23L359.74 53.18L358.54 53.18L358.54 52.31L359.74 52.31L359.74 50.46L360.8 50.3L360.8 52.31L362.21 52.31L362.21 53.18L360.8 53.18L360.8 57.05Q360.8 57.4 360.95 57.55Q361.11 57.71 361.44 57.71L361.44 57.71L362.22 57.71L362.22 58.62L361.1 58.62M366.93 58.62L365.27 52.31L366.36 52.31L367.24 55.82L367.66 57.58L367.72 57.58L368.1 55.82L368.97 52.31L370.12 52.31L371.02 55.82L371.42 57.59L371.46 57.59L371.87 55.82L372.75 52.31L373.79 52.31L372.14 58.62L370.82 58.62L369.96 55.36L369.53 53.56L369.5 53.56L369.09 55.36L368.28 58.62L366.93 58.62M374.62 58.62L374.62 52.31L375.69 52.31L375.69 58.62L374.62 58.62M375.16 51.19Q374.85 51.19 374.65 51Q374.45 50.81 374.45 50.51L374.45 50.51Q374.45 50.21 374.65 50.02Q374.85 49.82 375.16 49.82L375.16 49.82Q375.47 49.82 375.67 50.02Q375.87 50.21 375.87 50.51L375.87 50.51Q375.87 50.81 375.67 51Q375.47 51.19 375.16 51.19L375.16 51.19M379.17 58.62Q378.48 58.62 378.15 58.29Q377.81 57.96 377.81 57.23L377.81 57.23L377.81 53.18L376.61 53.18L376.61 52.31L377.81 52.31L377.81 50.46L378.87 50.3L378.87 52.31L380.28 52.31L380.28 53.18L378.87 53.18L378.87 57.05Q378.87 57.4 379.02 57.55Q379.18 57.71 379.52 57.71L379.52 57.71L380.3 57.71L380.3 58.62L379.17 58.62M381.34 58.62L381.34 49.67L382.4 49.67L382.4 53.6L382.44 53.6Q382.71 52.94 383.28 52.57Q383.86 52.2 384.56 52.2L384.56 52.2Q385.56 52.2 386.14 52.85Q386.72 53.5 386.72 54.86L386.72 54.86L386.72 58.62L385.66 58.62L385.66 55.1Q385.66 54.08 385.3 53.6Q384.94 53.11 384.18 53.11L384.18 53.11Q383.38 53.11 382.89 53.69Q382.4 54.28 382.4 55.19L382.4 55.19L382.4 58.62L381.34 58.62"/><path fill="#59636e" d="M20.76 76.73Q19.53 76.73 18.6 76.17Q17.67 75.61 17.16 74.6Q16.66 73.58 16.66 72.25L16.66 72.25Q16.66 70.91 17.18 69.89Q17.69 68.88 18.63 68.33Q19.56 67.78 20.8 67.78L20.8 67.78Q21.78 67.78 22.58 68.12Q23.37 68.46 23.87 69.09Q24.38 69.72 24.52 70.55L24.52 70.55L23.36 70.55Q23.16 69.73 22.47 69.25Q21.78 68.77 20.8 68.77L20.8 68.77Q19.89 68.77 19.22 69.19Q18.54 69.61 18.18 70.39Q17.81 71.17 17.81 72.24L17.81 72.24Q17.81 73.32 18.17 74.11Q18.53 74.9 19.2 75.33Q19.88 75.76 20.78 75.76L20.78 75.76Q22.01 75.76 22.77 75.04Q23.52 74.32 23.6 73.03L23.6 73.03L20.88 73.03L20.88 72.16L24.75 72.16L24.75 72.65Q24.75 73.9 24.26 74.81Q23.76 75.73 22.86 76.23Q21.96 76.73 20.76 76.73L20.76 76.73M26.07 76.62L26.07 70.31L27.03 70.31L27.09 71.47L27.12 71.47Q27.33 70.87 27.82 70.55Q28.31 70.22 28.96 70.22L28.96 70.22L29.25 70.24L29.25 71.27Q29.16 71.26 28.95 71.26L28.95 71.26Q28.13 71.26 27.66 71.69Q27.2 72.12 27.14 72.92L27.14 72.92L27.14 76.62L26.07 76.62M32.46 76.73Q31.71 76.73 31.14 76.33Q30.57 75.94 30.26 75.2Q29.94 74.46 29.94 73.46L29.94 73.46Q29.94 72.46 30.26 71.71Q30.57 70.97 31.14 70.58Q31.71 70.19 32.46 70.19L32.46 70.19Q33.23 70.19 33.8 70.57Q34.36 70.96 34.59 71.6L34.59 71.6L34.62 71.6L34.66 70.31L35.67 70.31L35.67 76.62L34.66 76.62L34.62 75.3L34.59 75.3Q34.35 75.97 33.79 76.35Q33.23 76.73 32.46 76.73L32.46 76.73M32.81 75.82Q33.35 75.82 33.77 75.53Q34.18 75.25 34.4 74.78Q34.61 74.32 34.61 73.76L34.61 73.76L34.61 73.16Q34.61 72.61 34.4 72.14Q34.18 71.66 33.77 71.38Q33.36 71.09 32.82 71.09L32.82 71.09Q31.98 71.09 31.51 71.71Q31.04 72.34 31.04 73.46L31.04 73.46Q31.04 74.57 31.51 75.19Q31.98 75.82 32.81 75.82L32.81 75.82M39.48 76.73Q38.73 76.73 38.16 76.33Q37.59 75.94 37.28 75.2Q36.96 74.46 36.96 73.46L36.96 73.46Q36.96 72.46 37.28 71.71Q37.59 70.97 38.16 70.58Q38.73 70.19 39.48 70.19L39.48 70.19Q40.25 70.19 40.81 70.57Q41.37 70.96 41.58 71.59L41.58 71.59L41.63 71.59L41.62 67.67L42.69 67.67L42.69 76.62L41.68 76.62L41.64 75.32L41.58 75.32Q41.37 75.96 40.8 76.34Q40.24 76.73 39.48 76.73L39.48 76.73M39.83 75.82Q40.38 75.82 40.79 75.54Q41.19 75.26 41.4 74.8Q41.62 74.33 41.62 73.78L41.62 73.78L41.62 73.15Q41.62 72.59 41.41 72.12Q41.2 71.65 40.8 71.37Q40.4 71.09 39.86 71.09L39.86 71.09Q39 71.09 38.53 71.71Q38.06 72.34 38.06 73.46L38.06 73.46Q38.06 74.57 38.52 75.19Q38.99 75.82 39.83 75.82L39.83 75.82M44.26 76.62L44.26 67.67L45.33 67.67L45.33 76.62L44.26 76.62M49.49 76.73Q48.11 76.73 47.33 75.85Q46.54 74.98 46.54 73.49L46.54 73.49Q46.54 72.49 46.89 71.75Q47.25 71.02 47.91 70.61Q48.57 70.2 49.46 70.2L49.46 70.2Q50.43 70.2 51.09 70.63Q51.75 71.06 52.07 71.84Q52.38 72.62 52.32 73.66L52.32 73.66L47.6 73.66Q47.61 74.72 48.12 75.31Q48.63 75.89 49.49 75.89L49.49 75.89Q50.16 75.89 50.6 75.59Q51.04 75.29 51.21 74.74L51.21 74.74L52.25 74.74Q52.07 75.67 51.33 76.2Q50.6 76.73 49.49 76.73L49.49 76.73M47.61 72.91L51.26 72.91Q51.21 72.01 50.73 71.53Q50.25 71.04 49.46 71.04L49.46 71.04Q48.66 71.04 48.17 71.54Q47.67 72.04 47.61 72.91L47.61 72.91M53.91 76.7Q53.6 76.7 53.4 76.51Q53.2 76.32 53.2 76.01L53.2 76.01Q53.2 75.71 53.4 75.51Q53.6 75.31 53.91 75.31L53.91 75.31Q54.22 75.31 54.42 75.5Q54.62 75.7 54.62 76.01L54.62 76.01Q54.62 76.32 54.42 76.51Q54.22 76.7 53.91 76.7L53.91 76.7"/><circle cx="22" cy="98" r="6" fill="#b07219"/><path fill="#59636e" d="M34.19 102.62L34.19 101.71L35.28 101.71Q35.99 101.71 36.27 101.37Q36.56 101.04 36.56 100.28L36.56 100.28L36.56 93.87L37.67 93.87L37.67 100.38Q37.67 101.5 37.15 102.06Q36.63 102.62 35.54 102.62L35.54 102.62L34.19 102.62M41.51 102.73Q40.76 102.73 40.19 102.33Q39.62 101.94 39.3 101.2Q38.99 100.46 38.99 99.46L38.99 99.46Q38.99 98.46 39.3 97.71Q39.62 96.97 40.19 96.58Q40.76 96.19 41.51 96.19L41.51 96.19Q42.28 96.19 42.84 96.57Q43.41 96.96 43.64 97.6L43.64 97.6L43.67 97.6L43.71 96.31L44.72 96.31L44.72 102.62L43.71 102.62L43.67 101.3L43.64 101.3Q43.4 101.97 42.84 102.35Q42.28 102.73 41.51 102.73L41.51 102.73M41.86 101.82Q42.4 101.82 42.81 101.53Q43.23 101.25 43.44 100.78Q43.66 100.32 43.66 99.76L43.66 99.76L43.66 99.16Q43.66 98.61 43.44 98.14Q43.23 97.66 42.82 97.38Q42.41 97.09 41.87 97.09L41.87 97.09Q41.03 97.09 40.56 97.71Q40.08 98.34 40.08 99.46L40.08 99.46Q40.08 100.57 40.56 101.19Q41.03 101.82 41.86 101.82L41.86 101.82M47.9 102.62L45.63 96.31L46.78 96.31L47.96 99.93L48.52 101.66L48.58 101.66L49.12 99.93L50.3 96.31L51.44 96.31L49.18 102.62L47.9 102.62M54.62 102.73Q53.86 102.73 53.29 102.33Q52.72 101.94 52.41 101.2Q52.1 100.46 52.1 99.46L52.1 99.46Q52.1 98.46 52.41 97.71Q52.72 96.97 53.29 96.58Q53.86 96.19 54.62 96.19L54.62 96.19Q55.38 96.19 55.95 96.57Q56.51 96.96 56.74 97.6L56.74 97.6L56.78 97.6L56.81 96.31L57.82 96.31L57.82 102.62L56.81 102.62L56.78 101.3L56.74 101.3Q56.5 101.97 55.94 102.35Q55.38 102.73 54.62 102.73L54.62 102.73M54.96 101.82Q55.5 101.82 55.92 101.53Q56.33 101.25 56.55 100.78Q56.76 100.32 56.76 99.76L56.76 99.76L56.76 99.16Q56.76 98.61 56.55 98.14Q56.33 97.66 55.92 97.38Q55.52 97.09 54.98 97.09L54.98 97.09Q54.14 97.09 53.66 97.71Q53.19 98.34 53.19 99.46L53.19 99.46Q53.19 100.57 53.66 101.19Q54.14 101.82 54.96 101.82L54.96 101.82"/></svg>
