<svg xmlns="http://www.w3.org/2000/svg" width="404" height="123" viewBox="0 0 404 123"><rect x="0.5" y="0.5" width="403" height="122" rx="6" fill="none" stroke="#d1d9e0"/><path fill="#0969da" d="M21.52 32.02Q20.05 32.02 18.95 31.39Q17.85 30.76 17.25 29.57Q16.64 28.39 16.64 26.78L16.64 26.78Q16.64 25.17 17.25 23.99Q17.85 22.8 18.95 22.18Q20.05 21.56 21.52 21.56L21.52 21.56Q22.76 21.56 23.73 22Q24.71 22.44 25.31 23.25Q25.91 24.05 26.07 25.14L26.07 25.14L24.18 25.14Q23.98 24.23 23.27 23.69Q22.55 23.15 21.52 23.15L21.52 23.15Q20.13 23.15 19.33 24.1Q18.53 25.04 18.53 26.78L18.53 26.78Q18.53 28.53 19.33 29.48Q20.13 30.42 21.52 30.42L21.52 30.42Q22.55 30.42 23.27 29.88Q23.99 29.34 24.18 28.42L24.18 28.42L26.07 28.42Q25.93 29.51 25.32 30.32Q24.71 31.13 23.73 31.57Q22.76 32.02 21.52 32.02L21.52 32.02M30.63 32.02Q29.55 32.02 28.73 31.55Q27.91 31.09 27.46 30.22Q27 29.34 27 28.17L27 28.17Q27 27.02 27.44 26.14Q27.87 25.27 28.69 24.79Q29.51 24.3 30.63 24.3L30.63 24.3Q31.71 24.3 32.53 24.77Q33.35 25.24 33.8 26.12Q34.26 26.99 34.26 28.17L34.26 28.17Q34.26 29.31 33.82 30.18Q33.39 31.05 32.57 31.53Q31.75 32.02 30.63 32.02L30.63 32.02M30.63 30.57Q31.48 30.57 31.98 29.96Q32.48 29.34 32.48 28.17L32.48 28.17Q32.48 26.99 31.99 26.37Q31.5 25.74 30.63 25.74L30.63 25.74Q29.76 25.74 29.27 26.37Q28.78 26.99 28.78 28.17L28.78 28.17Q28.78 29.33 29.27 29.95Q29.76 30.57 30.63 30.57L30.63 30.57M35.5 31.89L35.5 24.44L37.07 24.44L37.14 25.74L37.21 25.74Q37.45 25.06 37.99 24.7Q38.53 24.34 39.27 24.34L39.27 24.34Q39.48 24.34 39.58 24.36L39.58 24.36L39.58 26.02Q39.48 26.01 39.24 26.01L39.24 26.01Q37.32 26.01 37.24 27.83L37.24 27.83L37.24 31.89L35.5 31.89M43.78 32.02Q42.66 32.02 41.84 31.55Q41.02 31.08 40.59 30.22Q40.16 29.36 40.16 28.21L40.16 28.21Q40.16 27.03 40.6 26.15Q41.03 25.27 41.84 24.79Q42.64 24.3 43.72 24.3L43.72 24.3Q45.41 24.3 46.32 25.32Q47.23 26.35 47.23 28.05L47.23 28.05Q47.23 28.36 47.22 28.53L47.22 28.53L41.9 28.53Q41.9 29.55 42.4 30.12Q42.91 30.69 43.78 30.69L43.78 30.69Q45.09 30.69 45.44 29.61L45.44 29.61L47.15 29.61Q46.95 30.73 46.04 31.37Q45.13 32.02 43.78 32.02L43.78 32.02M41.91 27.42L45.47 27.41Q45.43 26.56 44.96 26.09Q44.49 25.63 43.71 25.63L43.71 25.63Q42.94 25.63 42.46 26.12Q41.98 26.6 41.91 27.42L41.91 27.42M48.51 31.89L48.51 21.68L52.88 21.68Q54.6 21.68 55.54 22.55Q56.47 23.41 56.47 24.97L56.47 24.97Q56.47 26.51 55.52 27.38Q54.56 28.25 52.88 28.25L52.88 28.25L50.36 28.25L50.36 31.89L48.51 31.89M50.36 26.75L52.62 26.75Q53.56 26.75 54.07 26.29Q54.58 25.83 54.58 25L54.58 25Q54.58 24.18 54.07 23.72Q53.56 23.27 52.62 23.27L52.62 23.27L50.36 23.27L50.36 26.75M57.59 31.89L57.59 21.45L59.34 21.45L59.34 31.89L57.59 31.89M63.46 32.02Q62.23 32.02 61.57 31.26Q60.91 30.5 60.91 29.08L60.91 29.08L60.91 24.44L62.66 24.44L62.66 28.64Q62.66 29.61 63.01 30.1Q63.36 30.59 64.13 30.59L64.13 30.59Q64.89 30.59 65.37 30.01Q65.85 29.43 65.85 28.52L65.85 28.52L65.85 24.44L67.59 24.44L67.59 31.89L65.92 31.89L65.87 30.41L65.78 30.41Q65.5 31.16 64.89 31.59Q64.27 32.02 63.46 32.02L63.46 32.02M71.93 32.03Q70.49 32.03 69.64 31.39Q68.79 30.76 68.74 29.65L68.74 29.65L70.45 29.65Q70.59 30.78 71.97 30.78L71.97 30.78Q72.63 30.78 72.97 30.54Q73.32 30.29 73.32 29.85L73.32 29.85Q73.32 29.36 72.97 29.15Q72.63 28.94 71.72 28.81L71.72 28.81Q70.25 28.6 69.59 28.12Q68.93 27.63 68.93 26.61L68.93 26.61Q68.93 25.56 69.75 24.93Q70.57 24.3 71.94 24.3L71.94 24.3Q73.25 24.3 74.02 24.9Q74.8 25.51 74.88 26.56L74.88 26.56L73.16 26.56Q73.11 26.04 72.78 25.79Q72.45 25.53 71.87 25.53L71.87 25.53Q71.3 25.53 70.97 25.78Q70.64 26.02 70.64 26.46L70.64 26.46Q70.64 26.91 71.02 27.1Q71.4 27.3 72.41 27.44L72.41 27.44Q73.78 27.62 74.42 28.12Q75.05 28.63 75.05 29.69L75.05 29.69Q75.05 30.8 74.22 31.41Q73.39 32.03 71.93 32.03L71.93 32.03"/><rect x="83.92" y="17" width="49.18" height="19" rx="9.5" fill="none" stroke="#d1d9e0"/><path fill="#59636e" d="M92.24 31.12L92.24 22.37L95.89 22.37Q97.34 22.37 98.14 23.1Q98.94 23.84 98.94 25.16L98.94 25.16Q98.94 26.46 98.12 27.2Q97.31 27.93 95.89 27.93L95.89 27.93L93.64 27.93L93.64 31.12L92.24 31.12M93.64 26.79L95.71 26.79Q96.58 26.79 97.04 26.37Q97.5 25.95 97.5 25.18L97.5 25.18Q97.5 24.41 97.04 23.99Q96.58 23.57 95.71 23.57L95.71 23.57L93.64 23.57L93.64 26.79M102.07 31.23Q101.02 31.23 100.45 30.59Q99.89 29.94 99.89 28.71L99.89 28.71L99.89 24.76L101.21 24.76L101.21 28.37Q101.21 29.24 101.53 29.69Q101.86 30.14 102.56 30.14L102.56 30.14Q103.27 30.14 103.72 29.6Q104.16 29.07 104.16 28.22L104.16 28.22L104.16 24.76L105.47 24.76L105.47 31.12L104.22 31.12L104.16 29.82L104.1 29.82Q103.86 30.48 103.33 30.86Q102.79 31.23 102.07 31.23L102.07 31.23M110.32 31.23Q109.58 31.23 109.04 30.87Q108.5 30.51 108.28 29.88L108.28 29.88L108.22 29.88L108.17 31.12L106.92 31.12L106.92 22.17L108.24 22.17L108.24 26.02L108.29 26.02Q108.5 25.41 109.05 25.03Q109.6 24.65 110.32 24.65L110.32 24.65Q111.08 24.65 111.65 25.05Q112.22 25.44 112.54 26.19Q112.85 26.93 112.85 27.94L112.85 27.94Q112.85 28.96 112.54 29.7Q112.22 30.45 111.65 30.84Q111.08 31.23 110.32 31.23L110.32 31.23M109.84 30.14Q110.63 30.14 111.06 29.55Q111.49 28.97 111.49 27.94L111.49 27.94Q111.49 26.91 111.07 26.33Q110.65 25.76 109.87 25.76L109.87 25.76Q109.12 25.76 108.68 26.3Q108.24 26.84 108.24 27.64L108.24 27.64L108.24 28.26Q108.24 29.07 108.67 29.6Q109.1 30.14 109.84 30.14L109.84 30.14M114.06 31.12L114.06 22.17L115.38 22.17L115.38 31.12L114.06 31.12M116.84 31.12L116.84 24.76L118.16 24.76L118.16 31.12L116.84 31.12M117.5 23.76Q117.16 23.76 116.92 23.54Q116.69 23.31 116.69 22.97L116.69 22.97Q116.69 22.64 116.92 22.41Q117.16 22.18 117.5 22.18L117.5 22.18Q117.86 22.18 118.1 22.4Q118.33 22.62 118.33 22.97L118.33 22.97Q118.33 23.32 118.1 23.54Q117.86 23.76 117.5 23.76L117.5 23.76M122.36 31.23Q121.45 31.23 120.76 30.82Q120.07 30.41 119.69 29.67Q119.32 28.92 119.32 27.94L119.32 27.94Q119.32 26.97 119.7 26.22Q120.08 25.47 120.78 25.06Q121.48 24.65 122.41 24.65L122.41 24.65Q123.58 24.65 124.34 25.27Q125.1 25.89 125.23 26.94L125.23 26.94L123.9 26.94Q123.77 26.38 123.37 26.07Q122.96 25.76 122.38 25.76L122.38 25.76Q121.56 25.76 121.11 26.35Q120.66 26.94 120.66 27.95L120.66 27.95Q120.66 28.98 121.12 29.55Q121.57 30.12 122.36 30.12L122.36 30.12Q123 30.12 123.41 29.79Q123.82 29.46 123.92 28.88L123.92 28.88L125.24 28.88Q125.11 29.96 124.34 30.59Q123.56 31.23 122.36 31.23L122.36 31.23"/><path fill="#59636e" d="M16.9 58.62L16.9 49.87L22.91 49.87L22.91 50.86L18.02 50.86L18.02 53.69L22.35 53.69L22.35 54.61L18.02 54.61L18.02 57.62L22.92 57.62L22.92 58.62L16.9 58.62M26.22 58.74Q25.05 58.74 24.36 58.22Q23.67 57.7 23.61 56.76L23.61 56.76L24.66 56.76Q24.74 57.36 25.15 57.65Q25.56 57.95 26.25 57.95L26.25 57.95Q26.93 57.95 27.3 57.68Q27.66 57.42 27.66 56.93L27.66 56.93Q27.66 56.41 27.32 56.19Q26.98 55.97 26.1 55.85L26.1 55.85Q24.88 55.67 24.34 55.28Q23.8 54.9 23.8 54.06L23.8 54.06Q23.8 53.21 24.45 52.7Q25.11 52.19 26.19 52.19L26.19 52.19Q27.24 52.19 27.87 52.69Q28.49 53.18 28.56 54.06L28.56 54.06L27.51 54.06Q27.39 52.98 26.16 52.98L26.16 52.98Q25.55 52.98 25.2 53.24Q24.84 53.51 24.84 53.95L24.84 53.95Q24.84 54.42 25.2 54.63Q25.56 54.84 26.48 54.97L26.48 54.97Q27.63 55.13 28.18 55.54Q28.73 55.94 28.73 56.84L28.73 56.84Q28.73 57.74 28.07 58.24Q27.4 58.74 26.22 58.74L26.22 58.74M32.1 58.74Q30.93 58.74 30.24 58.22Q29.55 57.7 29.49 56.76L29.49 56.76L30.54 56.76Q30.62 57.36 31.03 57.65Q31.44 57.95 32.13 57.95L32.13 57.95Q32.81 57.95 33.18 57.68Q33.54 57.42 33.54 56.93L33.54 56.93Q33.54 56.41 33.2 56.19Q32.86 55.97 31.98 55.85L31.98 55.85Q30.76 55.67 30.22 55.28Q29.68 54.9 29.68 54.06L29.68 54.06Q29.68 53.21 30.33 52.7Q30.99 52.19 32.07 52.19L32.07 52.19Q33.12 52.19 33.75 52.69Q34.37 53.18 34.44 54.06L34.44 54.06L33.39 54.06Q33.27 52.98 32.04 52.98L32.04 52.98Q31.43 52.98 31.08 53.24Q30.72 53.51 30.72 53.95L30.72 53.95Q30.72 54.42 31.08 54.63Q31.44 54.84 32.36 54.97L32.36 54.97Q33.51 55.13 34.06 55.54Q34.61 55.94 34.61 56.84L34.61 56.84Q34.61 57.74 33.95 58.24Q33.28 58.74 32.1 58.74L32.1 58.74M38.37 58.73Q36.99 58.73 36.2 57.85Q35.42 56.98 35.42 55.49L35.42 55.49Q35.42 54.49 35.77 53.75Q36.12 53.02 36.78 52.61Q37.44 52.2 38.33 52.2L38.33 52.2Q39.3 52.2 39.96 52.63Q40.62 53.06 40.94 53.84Q41.26 54.62 41.2 55.66L41.2 55.66L36.47 55.66Q36.48 56.72 36.99 57.31Q37.5 57.89 38.37 57.89L38.37 57.89Q39.04 57.89 39.48 57.59Q39.92 57.29 40.08 56.74L40.08 56.74L41.13 56.74Q40.95 57.67 40.21 58.2Q39.47 58.73 38.37 58.73L38.37 58.73M36.48 54.91L40.13 54.91Q40.08 54.01 39.6 53.53Q39.12 53.04 38.33 53.04L38.33 53.04Q37.54 53.04 37.04 53.54Q36.54 54.04 36.48 54.91L36.48 54.91M42.35 58.62L42.35 52.31L43.37 52.31L43.41 53.63L43.47 53.63Q43.74 52.94 44.31 52.57Q44.87 52.2 45.57 52.2L45.57 52.2Q46.58 52.2 47.15 52.85Q47.73 53.5 47.73 54.86L47.73 54.86L47.73 58.62L46.67 58.62L46.67 55.09Q46.67 54.08 46.31 53.6Q45.94 53.11 45.2 53.11L45.2 53.11Q44.4 53.11 43.91 53.69Q43.42 54.26 43.42 55.18L43.42 55.18L43.42 58.62L42.35 58.62M51.15 58.62Q50.46 58.62 50.13 58.29Q49.79 57.96 49.79 57.23L49.79 57.23L49.79 53.18L48.59 53.18L48.59 52.31L49.79 52.31L49.79 50.46L50.85 50.3L50.85 52.31L52.26 52.31L52.26 53.18L50.85 53.18L50.85 57.05Q50.85 57.4 51 57.55Q51.16 57.71 51.5 57.71L51.5 57.71L52.28 57.71L52.28 58.62L51.15 58.62M53.31 58.62L53.31 52.31L54.38 52.31L54.38 58.62L53.31 58.62M53.85 51.19Q53.54 51.19 53.34 51Q53.14 50.81 53.14 50.51L53.14 50.51Q53.14 50.21 53.34 50.02Q53.54 49.82 53.85 49.82L53.85 49.82Q54.16 49.82 54.36 50.02Q54.56 50.21 54.56 50.51L54.56 50.51Q54.56 50.81 54.36 51Q54.16 51.19 53.85 51.19L53.85 51.19M58.18 58.73Q57.42 58.73 56.85 58.33Q56.28 57.94 55.97 57.2Q55.66 56.46 55.66 55.46L55.66 55.46Q55.66 54.46 55.97 53.71Q56.28 52.97 56.85 52.58Q57.42 52.19 58.18 52.19L58.18 52.19Q58.95 52.19 59.51 52.57Q60.08 52.96 60.3 53.6L60.3 53.6L60.34 53.6L60.38 52.31L61.38 52.31L61.38 58.62L60.38 58.62L60.34 57.3L60.3 57.3Q60.06 57.97 59.51 58.35Q58.95 58.73 58.18 58.73L58.18 58.73M58.53 57.82Q59.07 57.82 59.48 57.53Q59.9 57.25 60.11 56.78Q60.33 56.32 60.33 55.76L60.33 55.76L60.33 55.16Q60.33 54.61 60.11 54.14Q59.9 53.66 59.49 53.38Q59.08 53.09 58.54 53.09L58.54 53.09Q57.7 53.09 57.23 53.71Q56.75 54.34 56.75 55.46L56.75 55.46Q56.75 56.57 57.23 57.19Q57.7 57.82 58.53 57.82L58.53 57.82M62.94 58.62L62.94 49.67L64.01 49.67L64.01 58.62L62.94 58.62M67.79 58.74Q66.62 58.74 65.93 58.22Q65.24 57.7 65.18 56.76L65.18 56.76L66.23 56.76Q66.3 57.36 66.72 57.65Q67.13 57.95 67.82 57.95L67.82 57.95Q68.5 57.95 68.87 57.68Q69.23 57.42 69.23 56.93L69.23 56.93Q69.23 56.41 68.89 56.19Q68.55 55.97 67.67 55.85L67.67 55.85Q66.45 55.67 65.91 55.28Q65.37 54.9 65.37 54.06L65.37 54.06Q65.37 53.21 66.02 52.7Q66.68 52.19 67.76 52.19L67.76 52.19Q68.81 52.19 69.44 52.69Q70.06 53.18 70.13 54.06L70.13 54.06L69.08 54.06Q68.96 52.98 67.73 52.98L67.73 52.98Q67.12 52.98 66.77 53.24Q66.41 53.51 66.41 53.95L66.41 53.95Q66.41 54.42 66.77 54.63Q67.13 54.84 68.04 54.97L68.04 54.97Q69.2 55.13 69.75 55.54Q70.3 55.94 70.3 56.84L70.3 56.84Q70.3 57.74 69.63 58.24Q68.97 58.74 67.79 58.74L67.79 58.74M71.06 55.91L71.06 55L74.82 55L74.82 55.91L71.06 55.91M78.17 58.74Q77 58.74 76.31 58.22Q75.62 57.7 75.56 56.76L75.56 56.76L76.61 56.76Q76.68 57.36 77.1 57.65Q77.51 57.95 78.2 57.95L78.2 57.95Q78.88 57.95 79.25 57.68Q79.61 57.42 79.61 56.93L79.61 56.93Q79.61 56.41 79.27 56.19Q78.93 55.97 78.05 55.85L78.05 55.85Q76.83 55.67 76.29 55.28Q75.75 54.9 75.75 54.06L75.75 54.06Q75.75 53.21 76.4 52.7Q77.06 52.19 78.14 52.19L78.14 52.19Q79.19 52.19 79.82 52.69Q80.44 53.18 80.51 54.06L80.51 54.06L79.46 54.06Q79.34 52.98 78.11 52.98L78.11 52.98Q77.5 52.98 77.15 53.24Q76.79 53.51 76.79 53.95L76.79 53.95Q76.79 54.42 77.15 54.63Q77.51 54.84 78.42 54.97L78.42 54.97Q79.58 55.13 80.13 55.54Q80.68 55.94 80.68 56.84L80.68 56.84Q80.68 57.74 80.01 58.24Q79.35 58.74 78.17 58.74L78.17 58.74M83.78 58.62Q83.09 58.62 82.76 58.29Q82.42 57.96 82.42 57.23L82.42 57.23L82.42 53.18L81.22 53.18L81.22 52.31L82.42 52.31L82.42 50.46L83.48 50.3L83.48 52.31L84.89 52.31L84.89 53.18L83.48 53.18L83.48 57.05Q83.48 57.4 83.63 57.55Q83.79 57.71 84.12 57.71L84.12 57.71L84.9 57.71L84.9 58.62L83.78 58.62M85.7 60.72L85.7 59.83L86.37 59.83Q86.79 59.83 87.03 59.65Q87.28 59.47 87.42 59.08L87.42 59.08L87.76 58.19L85.3 52.31L86.48 52.31L87.71 55.56L88.26 57.02L88.31 57.02L88.82 55.56L89.98 52.31L91.12 52.31L88.44 59.35Q88.18 60.08 87.73 60.4Q87.28 60.72 86.54 60.72L86.54 60.72L85.7 60.72M92.04 58.62L92.04 49.67L93.11 49.67L93.11 58.62L92.04 58.62M97.28 58.73Q95.9 58.73 95.11 57.85Q94.32 56.98 94.32 55.49L94.32 55.49Q94.32 54.49 94.68 53.75Q95.03 53.02 95.69 52.61Q96.35 52.2 97.24 52.2L97.24 52.2Q98.21 52.2 98.87 52.63Q99.53 53.06 99.85 53.84Q100.17 54.62 100.11 55.66L100.11 55.66L95.38 55.66Q95.39 56.72 95.9 57.31Q96.41 57.89 97.28 57.89L97.28 57.89Q97.95 57.89 98.39 57.59Q98.82 57.29 98.99 56.74L98.99 56.74L100.04 56.74Q99.86 57.67 99.12 58.2Q98.38 58.73 97.28 58.73L97.28 58.73M95.39 54.91L99.04 54.91Q98.99 54.01 98.51 53.53Q98.03 53.04 97.24 53.04L97.24 53.04Q96.45 53.04 95.95 53.54Q95.45 54.04 95.39 54.91L95.39 54.91M106.68 58.73Q105.8 58.73 105.12 58.33Q104.44 57.92 104.07 57.19Q103.71 56.45 103.71 55.48L103.71 55.48Q103.71 54.5 104.08 53.76Q104.45 53.02 105.14 52.61Q105.82 52.2 106.73 52.2L106.73 52.2Q107.85 52.2 108.59 52.79Q109.32 53.39 109.47 54.38L109.47 54.38L108.39 54.38Q108.23 53.77 107.79 53.44Q107.34 53.11 106.7 53.11L106.7 53.11Q105.8 53.11 105.29 53.75Q104.79 54.4 104.79 55.48L104.79 55.48Q104.79 56.58 105.3 57.2Q105.81 57.82 106.68 57.82L106.68 57.82Q107.37 57.82 107.82 57.46Q108.28 57.1 108.41 56.47L108.41 56.47L109.49 56.47Q109.34 57.52 108.58 58.12Q107.82 58.73 106.68 58.73L106.68 58.73M113.36 58.73Q112.47 58.73 111.78 58.33Q111.1 57.92 110.73 57.19Q110.36 56.46 110.36 55.48L110.36 55.48Q110.36 54.5 110.72 53.77Q111.09 53.03 111.77 52.61Q112.44 52.2 113.36 52.2L113.36 52.2Q114.24 52.2 114.92 52.6Q115.59 53 115.97 53.74Q116.34 54.48 116.34 55.46L116.34 55.46Q116.34 56.44 115.98 57.17Q115.61 57.91 114.93 58.32Q114.26 58.73 113.36 58.73L113.36 58.73M113.34 57.82Q114.22 57.82 114.74 57.2Q115.25 56.58 115.25 55.46L115.25 55.46Q115.25 54.36 114.74 53.73Q114.23 53.1 113.36 53.1L113.36 53.1Q112.47 53.1 111.96 53.72Q111.45 54.35 111.45 55.48L111.45 55.48Q111.45 56.58 111.96 57.2Q112.47 57.82 113.34 57.82L113.34 57.82M117.58 58.62L117.58 52.31L118.54 52.31L118.6 53.47L118.64 53.47Q118.84 52.87 119.33 52.55Q119.82 52.22 120.47 52.22L120.47 52.22L120.76 52.24L120.76 53.27Q120.68 53.26 120.46 53.26L120.46 53.26Q119.64 53.26 119.18 53.69Q118.71 54.12 118.65 54.92L118.65 54.92L118.65 58.62L117.58 58.62M124.31 58.73Q122.93 58.73 122.15 57.85Q121.36 56.98 121.36 55.49L121.36 55.49Q121.36 54.49 121.71 53.75Q122.07 53.02 122.73 52.61Q123.39 52.2 124.28 52.2L124.28 52.2Q125.25 52.2 125.91 52.63Q126.57 53.06 126.89 53.84Q127.2 54.62 127.14 55.66L127.14 55.66L122.42 55.66Q122.43 56.72 122.94 57.31Q123.45 57.89 124.31 57.89L124.31 57.89Q124.98 57.89 125.42 57.59Q125.86 57.29 126.03 56.74L126.03 56.74L127.07 56.74Q126.89 57.67 126.15 58.2Q125.42 58.73 124.31 58.73L124.31 58.73M122.43 54.91L126.08 54.91Q126.03 54.01 125.55 53.53Q125.07 53.04 124.28 53.04L124.28 53.04Q123.48 53.04 122.99 53.54Q122.49 54.04 122.43 54.91L122.43 54.91M131.03 60.7L131.03 52.31L132.04 52.31L132.08 53.62L132.14 53.62Q132.36 52.97 132.92 52.58Q133.48 52.2 134.24 52.2L134.24 52.2Q134.99 52.2 135.56 52.59Q136.13 52.98 136.44 53.72Q136.76 54.46 136.76 55.46L136.76 55.46Q136.76 56.47 136.44 57.21Q136.13 57.95 135.56 58.34Q134.99 58.73 134.24 58.73L134.24 58.73Q133.47 58.73 132.92 58.36Q132.36 57.98 132.14 57.35L132.14 57.35L132.09 57.35L132.1 60.7L131.03 60.7M133.86 57.84Q134.7 57.84 135.18 57.21Q135.66 56.58 135.66 55.46L135.66 55.46Q135.66 54.36 135.19 53.73Q134.72 53.1 133.89 53.1L133.89 53.1Q133.06 53.1 132.58 53.69Q132.1 54.28 132.1 55.13L132.1 55.13L132.1 55.81Q132.1 56.66 132.58 57.25Q133.06 57.84 133.86 57.84L133.86 57.84M138.08 58.62L138.08 49.67L139.14 49.67L139.14 58.62L138.08 58.62M142.84 58.73Q141.8 58.73 141.23 58.08Q140.66 57.43 140.66 56.21L140.66 56.21L140.66 52.31L141.72 52.31L141.72 55.94Q141.72 56.87 142.08 57.35Q142.44 57.83 143.21 57.83L143.21 57.83Q143.99 57.83 144.48 57.24Q144.98 56.65 144.98 55.69L144.98 55.69L144.98 52.31L146.03 52.31L146.03 58.62L145.02 58.62L144.98 57.28L144.93 57.28Q144.69 57.96 144.13 58.34Q143.57 58.73 142.84 58.73L142.84 58.73M150.26 60.85Q148.98 60.85 148.25 60.38Q147.51 59.92 147.38 59L147.38 59L148.5 59Q148.73 60.02 150.28 60.02L150.28 60.02Q151.16 60.02 151.55 59.62Q151.95 59.21 151.95 58.32L151.95 58.32L151.96 57.16L151.91 57.16Q151.68 57.78 151.12 58.15Q150.56 58.51 149.79 58.51L149.79 58.51Q149.04 58.51 148.47 58.13Q147.9 57.76 147.59 57.04Q147.28 56.33 147.28 55.36L147.28 55.36Q147.28 54.37 147.59 53.66Q147.9 52.94 148.47 52.57Q149.04 52.19 149.79 52.19L149.79 52.19Q150.56 52.19 151.12 52.54Q151.68 52.9 151.92 53.53L151.92 53.53L151.97 53.53L152 52.31L153.02 52.31L153.02 58.19Q153.02 59.58 152.32 60.22Q151.62 60.85 150.26 60.85L150.26 60.85M150.15 57.61Q150.69 57.61 151.1 57.34Q151.5 57.07 151.73 56.62Q151.95 56.16 151.95 55.63L151.95 55.63L151.95 55.03Q151.95 54.52 151.73 54.07Q151.52 53.62 151.11 53.35Q150.7 53.08 150.15 53.08L150.15 53.08Q149.32 53.08 148.85 53.67Q148.37 54.26 148.37 55.36L148.37 55.36Q148.37 56.42 148.85 57.02Q149.32 57.61 150.15 57.61L150.15 57.61M154.54 58.62L154.54 52.31L155.61 52.31L155.61 58.62L154.54 58.62M155.08 51.19Q154.77 51.19 154.57 51Q154.37 50.81 154.37 50.51L154.37 50.51Q154.37 50.21 154.57 50.02Q154.77 49.82 155.08 49.82L155.08 49.82Q155.39 49.82 155.59 50.02Q155.79 50.21 155.79 50.51L155.79 50.51Q155.79 50.81 155.59 51Q155.39 51.19 155.08 51.19L155.08 51.19M157.14 58.62L157.14 52.31L158.16 52.31L158.2 53.63L158.26 53.63Q158.54 52.94 159.1 52.57Q159.66 52.2 160.36 52.2L160.36 52.2Q161.37 52.2 161.94 52.85Q162.52 53.5 162.52 54.86L162.52 54.86L162.52 58.62L161.46 58.62L161.46 55.09Q161.46 54.08 161.1 53.6Q160.73 53.11 159.99 53.11L159.99 53.11Q159.2 53.11 158.7 53.69Q158.21 54.26 158.21 55.18L158.21 55.18L158.21 58.62L157.14 58.62M167.16 58.62L167.16 53.18L166.07 53.18L166.07 52.31L167.16 52.31L167.16 51.18Q167.16 50.44 167.58 50.05Q167.99 49.67 168.76 49.67L168.76 49.67L169.67 49.67L169.67 50.48L168.96 50.48Q168.58 50.48 168.41 50.66Q168.23 50.83 168.23 51.24L168.23 51.24L168.23 52.31L169.56 52.31L169.56 53.18L168.23 53.18L168.23 58.62L167.16 58.62M173.25 58.73Q172.36 58.73 171.68 58.33Q170.99 57.92 170.62 57.19Q170.25 56.46 170.25 55.48L170.25 55.48Q170.25 54.5 170.61 53.77Q170.98 53.03 171.66 52.61Q172.34 52.2 173.25 52.2L173.25 52.2Q174.14 52.2 174.81 52.6Q175.48 53 175.86 53.74Q176.24 54.48 176.24 55.46L176.24 55.46Q176.24 56.44 175.87 57.17Q175.5 57.91 174.83 58.32Q174.15 58.73 173.25 58.73L173.25 58.73M173.24 57.82Q174.11 57.82 174.63 57.2Q175.14 56.58 175.14 55.46L175.14 55.46Q175.14 54.36 174.63 53.73Q174.12 53.1 173.25 53.1L173.25 53.1Q172.36 53.1 171.85 53.72Q171.34 54.35 171.34 55.48L171.34 55.48Q171.34 56.58 171.85 57.2Q172.36 57.82 173.24 57.82L173.24 57.82M177.47 58.62L177.47 52.31L178.43 52.31L178.49 53.47L178.53 53.47Q178.73 52.87 179.22 52.55Q179.72 52.22 180.36 52.22L180.36 52.22L180.65 52.24L180.65 53.27Q180.57 53.26 180.35 53.26L180.35 53.26Q179.54 53.26 179.07 53.69Q178.6 54.12 178.54 54.92L178.54 54.92L178.54 58.62L177.47 58.62M184.46 58.62L184.46 49.87L187.98 49.87Q189.4 49.87 190.19 50.59Q190.97 51.31 190.97 52.61L190.97 52.61Q190.97 53.88 190.17 54.6Q189.38 55.32 187.97 55.32L187.97 55.32L185.57 55.32L185.57 58.62L184.46 58.62M185.57 54.38L187.84 54.38Q188.79 54.38 189.3 53.92Q189.82 53.46 189.82 52.63L189.82 52.63Q189.82 51.78 189.3 51.32Q188.79 50.86 187.84 50.86L187.84 50.86L185.57 50.86L185.57 54.38M194.33 58.73Q193.58 58.73 193.01 58.33Q192.44 57.94 192.12 57.2Q191.81 56.46 191.81 55.46L191.81 55.46Q191.81 54.46 192.12 53.71Q192.44 52.97 193.01 52.58Q193.58 52.19 194.33 52.19L194.33 52.19Q195.1 52.19 195.66 52.57Q196.23 52.96 196.46 53.6L196.46 53.6L196.49 53.6L196.53 52.31L197.54 52.31L197.54 58.62L196.53 58.62L196.49 57.3L196.46 57.3Q196.22 57.97 195.66 58.35Q195.1 58.73 194.33 58.73L194.33 58.73M194.68 57.82Q195.22 57.82 195.63 57.53Q196.05 57.25 196.26 56.78Q196.48 56.32 196.48 55.76L196.48 55.76L196.48 55.16Q196.48 54.61 196.26 54.14Q196.05 53.66 195.64 53.38Q195.23 53.09 194.69 53.09L194.69 53.09Q193.85 53.09 193.38 53.71Q192.9 54.34 192.9 55.46L192.9 55.46Q192.9 56.57 193.38 57.19Q193.85 57.82 194.68 57.82L194.68 57.82M199.08 60.7L199.08 52.31L200.09 52.31L200.13 53.62L200.19 53.62Q200.42 52.97 200.97 52.58Q201.53 52.2 202.29 52.2L202.29 52.2Q203.04 52.2 203.61 52.59Q204.18 52.98 204.5 53.72Q204.81 54.46 204.81 55.46L204.81 55.46Q204.81 56.47 204.5 57.21Q204.18 57.95 203.61 58.34Q203.04 58.73 202.29 58.73L202.29 58.73Q201.52 58.73 200.97 58.36Q200.42 57.98 200.19 57.35L200.19 57.35L200.14 57.35L200.15 60.7L199.08 60.7M201.92 57.84Q202.76 57.84 203.24 57.21Q203.72 56.58 203.72 55.46L203.72 55.46Q203.72 54.36 203.24 53.73Q202.77 53.1 201.94 53.1L201.94 53.1Q201.11 53.1 200.63 53.69Q200.15 54.28 200.15 55.13L200.15 55.13L200.15 55.81Q200.15 56.66 200.63 57.25Q201.11 57.84 201.92 57.84L201.92 57.84M208.71 58.73Q207.33 58.73 206.54 57.85Q205.76 56.98 205.76 55.49L205.76 55.49Q205.76 54.49 206.11 53.75Q206.46 53.02 207.12 52.61Q207.78 52.2 208.67 52.2L208.67 52.2Q209.64 52.2 210.3 52.63Q210.96 53.06 211.28 53.84Q211.6 54.62 211.54 55.66L211.54 55.66L206.81 55.66Q206.82 56.72 207.33 57.31Q207.84 57.89 208.71 57.89L208.71 57.89Q209.38 57.89 209.82 57.59Q210.26 57.29 210.42 56.74L210.42 56.74L211.47 56.74Q211.29 57.67 210.55 58.2Q209.81 58.73 208.71 58.73L208.71 58.73M206.82 54.91L210.47 54.91Q210.42 54.01 209.94 53.53Q209.46 53.04 208.67 53.04L208.67 53.04Q207.88 53.04 207.38 53.54Q206.88 54.04 206.82 54.91L206.82 54.91M212.68 58.62L212.68 52.31L213.64 52.31L213.7 53.47L213.74 53.47Q213.94 52.87 214.43 52.55Q214.92 52.22 215.57 52.22L215.57 52.22L215.86 52.24L215.86 53.27Q215.78 53.26 215.56 53.26L215.56 53.26Q214.74 53.26 214.28 53.69Q213.81 54.12 213.75 54.92L213.75 54.92L213.75 58.62L212.68 58.62M221.8 58.73Q221.04 58.73 220.47 58.33Q219.9 57.94 219.59 57.2Q219.28 56.46 219.28 55.46L219.28 55.46Q219.28 54.46 219.59 53.71Q219.9 52.97 220.47 52.58Q221.04 52.19 221.8 52.19L221.8 52.19Q222.57 52.19 223.13 52.57Q223.7 52.96 223.92 53.6L223.92 53.6L223.96 53.6L224 52.31L225 52.31L225 58.62L224 58.62L223.96 57.3L223.92 57.3Q223.68 57.97 223.13 58.35Q222.57 58.73 221.8 58.73L221.8 58.73M222.15 57.82Q222.69 57.82 223.1 57.53Q223.52 57.25 223.73 56.78Q223.95 56.32 223.95 55.76L223.95 55.76L223.95 55.16Q223.95 54.61 223.73 54.14Q223.52 53.66 223.11 53.38Q222.7 53.09 222.16 53.09L222.16 53.09Q221.32 53.09 220.85 53.71Q220.37 54.34 220.37 55.46L220.37 55.46Q220.37 56.57 220.85 57.19Q221.32 57.82 222.15 57.82L222.15 57.82M226.54 58.62L226.54 52.31L227.56 52.31L227.6 53.63L227.66 53.63Q227.93 52.94 228.5 52.57Q229.06 52.2 229.76 52.2L229.76 52.2Q230.76 52.2 231.34 52.85Q231.92 53.5 231.92 54.86L231.92 54.86L231.92 58.62L230.86 58.62L230.86 55.09Q230.86 54.08 230.49 53.6Q230.13 53.11 229.38 53.11L229.38 53.11Q228.59 53.11 228.1 53.69Q227.61 54.26 227.61 55.18L227.61 55.18L227.61 58.62L226.54 58.62M235.67 58.73Q234.92 58.73 234.35 58.33Q233.78 57.94 233.46 57.2Q233.15 56.46 233.15 55.46L233.15 55.46Q233.15 54.46 233.46 53.71Q233.78 52.97 234.35 52.58Q234.92 52.19 235.67 52.19L235.67 52.19Q236.44 52.19 237 52.57Q237.56 52.96 237.77 53.59L237.77 53.59L237.82 53.59L237.81 49.67L238.88 49.67L238.88 58.62L237.87 58.62L237.83 57.32L237.77 57.32Q237.56 57.96 236.99 58.34Q236.43 58.73 235.67 58.73L235.67 58.73M236.02 57.82Q236.57 57.82 236.97 57.54Q237.38 57.26 237.59 56.8Q237.81 56.33 237.81 55.78L237.81 55.78L237.81 55.15Q237.81 54.59 237.6 54.12Q237.39 53.65 236.99 53.37Q236.58 53.09 236.04 53.09L236.04 53.09Q235.19 53.09 234.72 53.71Q234.24 54.34 234.24 55.46L234.24 55.46Q234.24 56.57 234.71 57.19Q235.18 57.82 236.02 57.82L236.02 57.82M246.17 58.73Q244.58 58.73 243.72 58Q242.87 57.26 242.81 56L242.81 56L243.96 56Q244.02 56.88 244.58 57.35Q245.13 57.83 246.21 57.83L246.21 57.83Q247.17 57.83 247.71 57.43Q248.26 57.04 248.26 56.32L248.26 56.32Q248.26 55.8 248.04 55.49Q247.82 55.18 247.33 54.98Q246.84 54.79 245.96 54.62L245.96 54.62Q244.44 54.35 243.74 53.81Q243.04 53.28 243.04 52.21L243.04 52.21Q243.04 51.48 243.41 50.93Q243.78 50.38 244.48 50.08Q245.18 49.78 246.1 49.78L246.1 49.78Q247.48 49.78 248.28 50.42Q249.08 51.07 249.16 52.19L249.16 52.19L248.02 52.19Q247.94 51.44 247.42 51.05Q246.9 50.66 246.05 50.66L246.05 50.66Q245.19 50.66 244.7 51.04Q244.2 51.42 244.2 52.07L244.2 52.07Q244.2 52.55 244.42 52.82Q244.64 53.1 245.12 53.27Q245.6 53.45 246.52 53.62L246.52 53.62Q247.48 53.8 248.1 54.06Q248.72 54.32 249.07 54.85Q249.42 55.37 249.42 56.23L249.42 56.23Q249.42 57.38 248.56 58.06Q247.7 58.73 246.17 58.73L246.17 58.73M250.66 60.7L250.66 52.31L251.67 52.31L251.7 53.62L251.76 53.62Q251.99 52.97 252.55 52.58Q253.11 52.2 253.86 52.2L253.86 52.2Q254.62 52.2 255.19 52.59Q255.76 52.98 256.07 53.72Q256.38 54.46 256.38 55.46L256.38 55.46Q256.38 56.47 256.07 57.21Q255.76 57.95 255.19 58.34Q254.62 58.73 253.86 58.73L253.86 58.73Q253.1 58.73 252.54 58.36Q251.99 57.98 251.76 57.35L251.76 57.35L251.72 57.35L251.73 60.7L250.66 60.7M253.49 57.84Q254.33 57.84 254.81 57.21Q255.29 56.58 255.29 55.46L255.29 55.46Q255.29 54.36 254.82 53.73Q254.34 53.1 253.52 53.1L253.52 53.1Q252.69 53.1 252.21 53.69Q251.73 54.28 251.73 55.13L251.73 55.13L251.73 55.81Q251.73 56.66 252.21 57.25Q252.69 57.84 253.49 57.84L253.49 57.84M257.68 58.62L257.68 52.31L258.75 52.31L258.75 58.62L257.68 58.62M258.22 51.19Q257.91 51.19 257.71 51Q257.51 50.81 257.51 50.51L257.51 50.51Q257.51 50.21 257.71 50.02Q257.91 49.82 258.22 49.82L258.22 49.82Q258.53 49.82 258.73 50.02Q258.93 50.21 258.93 50.51L258.93 50.51Q258.93 50.81 258.73 51Q258.53 51.19 258.22 51.19L258.22 51.19M262.97 60.85Q261.7 60.85 260.96 60.38Q260.22 59.92 260.09 59L260.09 59L261.22 59Q261.45 60.02 263 60.02L263 60.02Q263.87 60.02 264.27 59.62Q264.66 59.21 264.66 58.32L264.66 58.32L264.68 57.16L264.63 57.16Q264.4 57.78 263.84 58.15Q263.27 58.51 262.5 58.51L262.5 58.51Q261.76 58.51 261.19 58.13Q260.62 57.76 260.31 57.04Q260 56.33 260 55.36L260 55.36Q260 54.37 260.31 53.66Q260.62 52.94 261.19 52.57Q261.76 52.19 262.5 52.19L262.5 52.19Q263.27 52.19 263.84 52.54Q264.4 52.9 264.64 53.53L264.64 53.53L264.69 53.53L264.71 52.31L265.73 52.31L265.73 58.19Q265.73 59.58 265.04 60.22Q264.34 60.85 262.97 60.85L262.97 60.85M262.86 57.61Q263.4 57.61 263.81 57.34Q264.22 57.07 264.44 56.62Q264.66 56.16 264.66 55.63L264.66 55.63L264.66 55.03Q264.66 54.52 264.45 54.07Q264.23 53.62 263.82 53.35Q263.42 53.08 262.86 53.08L262.86 53.08Q262.04 53.08 261.56 53.67Q261.09 54.26 261.09 55.36L261.09 55.36Q261.09 56.42 261.56 57.02Q262.04 57.61 262.86 57.61L262.86 57.61M269.98 58.73Q269.09 58.73 268.41 58.33Q267.72 57.92 267.35 57.19Q266.98 56.46 266.98 55.48L266.98 55.48Q266.98 54.5 267.35 53.77Q267.71 53.03 268.39 52.61Q269.07 52.2 269.98 52.2L269.98 52.2Q270.87 52.2 271.54 52.6Q272.21 53 272.59 53.74Q272.97 54.48 272.97 55.46L272.97 55.46Q272.97 56.44 272.6 57.17Q272.24 57.91 271.56 58.32Q270.88 58.73 269.98 58.73L269.98 58.73M269.97 57.82Q270.84 57.82 271.36 57.2Q271.88 56.58 271.88 55.46L271.88 55.46Q271.88 54.36 271.37 53.73Q270.86 53.1 269.98 53.1L269.98 53.1Q269.09 53.1 268.58 53.72Q268.07 54.35 268.07 55.48L268.07 55.48Q268.07 56.58 268.58 57.2Q269.09 57.82 269.97 57.82L269.97 57.82M276.16 58.62Q275.48 58.62 275.14 58.29Q274.8 57.96 274.8 57.23L274.8 57.23L274.8 53.18L273.6 53.18L273.6 52.31L274.8 52.31L274.8 50.46L275.86 50.3L275.86 52.31L277.28 52.31L277.28 53.18L275.86 53.18L275.86 57.05Q275.86 57.4 276.02 57.55Q276.17 57.71 276.51 57.71L276.51 57.71L277.29 57.71L277.29 58.62L276.16 58.62M278.75 58.7Q278.44 58.7 278.24 58.51Q278.04 58.32 278.04 58.01L278.04 58.01Q278.04 57.71 278.24 57.51Q278.44 57.31 278.75 57.31L278.75 57.31Q279.06 57.31 279.26 57.5Q279.46 57.7 279.46 58.01L279.46 58.01Q279.46 58.32 279.26 58.51Q279.06 58.7 278.75 58.7L278.75 58.7M278.75 53.51Q278.44 53.51 278.24 53.32Q278.04 53.12 278.04 52.81L278.04 52.81Q278.04 52.51 278.24 52.31Q278.44 52.12 278.75 52.12L278.75 52.12Q279.06 52.12 279.26 52.31Q279.46 52.5 279.46 52.81L279.46 52.81Q279.46 53.12 279.26 53.32Q279.06 53.51 278.75 53.51L278.75 53.51M286.29 58.73Q285.4 58.73 284.72 58.33Q284.04 57.92 283.68 57.19Q283.31 56.45 283.31 55.48L283.31 55.48Q283.31 54.5 283.68 53.76Q284.06 53.02 284.74 52.61Q285.42 52.2 286.34 52.2L286.34 52.2Q287.45 52.2 288.19 52.79Q288.93 53.39 289.07 54.38L289.07 54.38L287.99 54.38Q287.84 53.77 287.39 53.44Q286.95 53.11 286.3 53.11L286.3 53.11Q285.4 53.11 284.9 53.75Q284.39 54.4 284.39 55.48L284.39 55.48Q284.39 56.58 284.9 57.2Q285.41 57.82 286.29 57.82L286.29 57.82Q286.97 57.82 287.43 57.46Q287.88 57.1 288.02 56.47L288.02 56.47L289.1 56.47Q288.94 57.52 288.18 58.12Q287.43 58.73 286.29 58.73L286.29 58.73M292.96 58.73Q292.07 58.73 291.39 58.33Q290.7 57.92 290.33 57.19Q289.96 56.46 289.96 55.48L289.96 55.48Q289.96 54.5 290.33 53.77Q290.69 53.03 291.37 52.61Q292.05 52.2 292.96 52.2L292.96 52.2Q293.85 52.2 294.52 52.6Q295.19 53 295.57 53.74Q295.95 54.48 295.95 55.46L295.95 55.46Q295.95 56.44 295.58 57.17Q295.22 57.91 294.54 58.32Q293.86 58.73 292.96 58.73L292.96 58.73M292.95 57.82Q293.82 57.82 294.34 57.2Q294.86 56.58 294.86 55.46L294.86 55.46Q294.86 54.36 294.35 53.73Q293.84 53.1 292.96 53.1L292.96 53.1Q292.07 53.1 291.56 53.72Q291.05 54.35 291.05 55.48L291.05 55.48Q291.05 56.58 291.56 57.2Q292.07 57.82 292.95 57.82L292.95 57.82M297.2 58.62L297.2 52.31L298.22 52.31L298.25 53.57L298.3 53.57Q298.56 52.91 299.12 52.55Q299.67 52.2 300.34 52.2L300.34 52.2Q301.06 52.2 301.56 52.57Q302.06 52.93 302.27 53.66L302.27 53.66L302.33 53.66Q302.6 52.97 303.17 52.58Q303.75 52.2 304.47 52.2L304.47 52.2Q305.43 52.2 305.99 52.82Q306.54 53.45 306.54 54.79L306.54 54.79L306.54 58.62L305.49 58.62L305.49 55.01Q305.49 54.04 305.15 53.57Q304.82 53.11 304.1 53.11L304.1 53.11Q303.34 53.11 302.87 53.67Q302.4 54.23 302.4 55.1L302.4 55.1L302.4 58.62L301.34 58.62L301.34 55.01Q301.34 54.04 301 53.57Q300.66 53.11 299.96 53.11L299.96 53.11Q299.19 53.11 298.72 53.67Q298.25 54.23 298.25 55.1L298.25 55.1L298.25 58.62L297.2 58.62M308.02 58.62L308.02 52.31L309.04 52.31L309.08 53.57L309.12 53.57Q309.39 52.91 309.94 52.55Q310.49 52.2 311.16 52.2L311.16 52.2Q311.88 52.2 312.38 52.57Q312.88 52.93 313.1 53.66L313.1 53.66L313.16 53.66Q313.42 52.97 314 52.58Q314.57 52.2 315.29 52.2L315.29 52.2Q316.25 52.2 316.81 52.82Q317.37 53.45 317.37 54.79L317.37 54.79L317.37 58.62L316.31 58.62L316.31 55.01Q316.31 54.04 315.98 53.57Q315.64 53.11 314.92 53.11L314.92 53.11Q314.16 53.11 313.7 53.67Q313.23 54.23 313.23 55.1L313.23 55.1L313.23 58.62L312.16 58.62L312.16 55.01Q312.16 54.04 311.82 53.57Q311.49 53.11 310.78 53.11L310.78 53.11Q310.01 53.11 309.54 53.67Q309.08 54.23 309.08 55.1L309.08 55.1L309.08 58.62L308.02 58.62M321.11 58.73Q320.36 58.73 319.79 58.33Q319.22 57.94 318.9 57.2Q318.59 56.46 318.59 55.46L318.59 55.46Q318.59 54.46 318.9 53.71Q319.22 52.97 319.79 52.58Q320.36 52.19 321.11 52.19L321.11 52.19Q321.88 52.19 322.44 52.57Q323.01 52.96 323.24 53.6L323.24 53.6L323.27 53.6L323.31 52.31L324.32 52.31L324.32 58.62L323.31 58.62L323.27 57.3L323.24 57.3Q323 57.97 322.44 58.35Q321.88 58.73 321.11 58.73L321.11 58.73M321.46 57.82Q322 57.82 322.41 57.53Q322.83 57.25 323.04 56.78Q323.26 56.32 323.26 55.76L323.26 55.76L323.26 55.16Q323.26 54.61 323.04 54.14Q322.83 53.66 322.42 53.38Q322.01 53.09 321.47 53.09L321.47 53.09Q320.63 53.09 320.16 53.71Q319.68 54.34 319.68 55.46L319.68 55.46Q319.68 56.57 320.16 57.19Q320.63 57.82 321.46 57.82L321.46 57.82M325.85 58.62L325.85 52.31L326.87 52.31L326.91 53.63L326.97 53.63Q327.24 52.94 327.81 52.57Q328.37 52.2 329.07 52.2L329.07 52.2Q330.08 52.2 330.65 52.85Q331.23 53.5 331.23 54.86L331.23 54.86L331.23 58.62L330.17 58.62L330.17 55.09Q330.17 54.08 329.81 53.6Q329.44 53.11 328.7 53.11L328.7 53.11Q327.9 53.11 327.41 53.69Q326.92 54.26 326.92 55.18L326.92 55.18L326.92 58.62L325.85 58.62M334.98 58.73Q334.23 58.73 333.66 58.33Q333.09 57.94 332.78 57.2Q332.46 56.46 332.46 55.46L332.46 55.46Q332.46 54.46 332.78 53.71Q333.09 52.97 333.66 52.58Q334.23 52.19 334.98 52.19L334.98 52.19Q335.75 52.19 336.31 52.57Q336.87 52.96 337.08 53.59L337.08 53.59L337.13 53.59L337.12 49.67L338.19 49.67L338.19 58.62L337.18 58.62L337.14 57.32L337.08 57.32Q336.87 57.96 336.3 58.34Q335.74 58.73 334.98 58.73L334.98 58.73M335.33 57.82Q335.88 57.82 336.29 57.54Q336.69 57.26 336.9 56.8Q337.12 56.33 337.12 55.78L337.12 55.78L337.12 55.15Q337.12 54.59 336.91 54.12Q336.7 53.65 336.3 53.37Q335.9 53.09 335.36 53.09L335.36 53.09Q334.5 53.09 334.03 53.71Q333.56 54.34 333.56 55.46L333.56 55.46Q333.56 56.57 334.02 57.19Q334.49 57.82 335.33 57.82L335.33 57.82M341.96 58.74Q340.78 58.74 340.09 58.22Q339.4 57.7 339.34 56.76L339.34 56.76L340.4 56.76Q340.47 57.36 340.88 57.65Q341.3 57.95 341.98 57.95L341.98 57.95Q342.66 57.95 343.03 57.68Q343.4 57.42 343.4 56.93L343.4 56.93Q343.4 56.41 343.05 56.19Q342.71 55.97 341.84 55.85L341.84 55.85Q340.61 55.67 340.07 55.28Q339.53 54.9 339.53 54.06L339.53 54.06Q339.53 53.21 340.19 52.7Q340.84 52.19 341.92 52.19L341.92 52.19Q342.98 52.19 343.6 52.69Q344.22 53.18 344.3 54.06L344.3 54.06L343.24 54.06Q343.12 52.98 341.9 52.98L341.9 52.98Q341.28 52.98 340.93 53.24Q340.58 53.51 340.58 53.95L340.58 53.95Q340.58 54.42 340.94 54.63Q341.3 54.84 342.21 54.97L342.21 54.97Q343.36 55.13 343.91 55.54Q344.46 55.94 344.46 56.84L344.46 56.84Q344.46 57.74 343.8 58.24Q343.13 58.74 341.96 58.74L341.96 58.74M345.26 60.49Q345.99 59.23 346.13 58.67L346.13 58.67Q346.1 58.68 346.04 58.68L346.04 58.68Q345.75 58.68 345.57 58.5Q345.39 58.32 345.39 58.03L345.39 58.03Q345.39 57.72 345.59 57.52Q345.8 57.32 346.11 57.32L346.11 57.32Q346.44 57.32 346.65 57.57Q346.86 57.82 346.86 58.21L346.86 58.21Q346.86 58.62 346.61 59.24Q346.35 59.87 345.96 60.49L345.96 60.49L345.26 60.49"/><path fill="#59636e" d="M18.9 76.73Q17.86 76.73 17.29 76.08Q16.72 75.43 16.72 74.21L16.72 74.21L16.72 70.31L17.79 70.31L17.79 73.94Q17.79 74.87 18.15 75.35Q18.51 75.83 19.28 75.83L19.28 75.83Q20.06 75.83 20.55 75.24Q21.04 74.65 21.04 73.69L21.04 73.69L21.04 70.31L22.1 70.31L22.1 76.62L21.09 76.62L21.04 75.28L20.99 75.28Q20.75 75.96 20.19 76.34Q19.64 76.73 18.9 76.73L18.9 76.73M25.58 76.62Q24.89 76.62 24.56 76.29Q24.22 75.96 24.22 75.23L24.22 75.23L24.22 71.18L23.02 71.18L23.02 70.31L24.22 70.31L24.22 68.46L25.28 68.3L25.28 70.31L26.69 70.31L26.69 71.18L25.28 71.18L25.28 75.05Q25.28 75.4 25.43 75.55Q25.59 75.71 25.92 75.71L25.92 75.71L26.7 75.71L26.7 76.62L25.58 76.62M27.74 76.62L27.74 70.31L28.8 70.31L28.8 76.62L27.74 76.62M28.28 69.19Q27.96 69.19 27.77 69Q27.57 68.81 27.57 68.51L27.57 68.51Q27.57 68.21 27.77 68.02Q27.96 67.82 28.28 67.82L28.28 67.82Q28.59 67.82 28.79 68.02Q28.98 68.21 28.98 68.51L28.98 68.51Q28.98 68.81 28.79 69Q28.59 69.19 28.28 69.19L28.28 69.19M30.36 76.62L30.36 67.67L31.43 67.67L31.43 76.62L30.36 76.62M32.99 76.62L32.99 70.31L34.06 70.31L34.06 76.62L32.99 76.62M33.53 69.19Q33.22 69.19 33.02 69Q32.82 68.81 32.82 68.51L32.82 68.51Q32.82 68.21 33.02 68.02Q33.22 67.82 33.53 67.82L33.53 67.82Q33.84 67.82 34.04 68.02Q34.24 68.21 34.24 68.51L34.24 68.51Q34.24 68.81 34.04 69Q33.84 69.19 33.53 69.19L33.53 69.19M37.54 76.62Q36.86 76.62 36.52 76.29Q36.18 75.96 36.18 75.23L36.18 75.23L36.18 71.18L34.98 71.18L34.98 70.31L36.18 70.31L36.18 68.46L37.24 68.3L37.24 70.31L38.66 70.31L38.66 71.18L37.24 71.18L37.24 75.05Q37.24 75.4 37.4 75.55Q37.55 75.71 37.89 75.71L37.89 75.71L38.67 75.71L38.67 76.62L37.54 76.62M39.7 76.62L39.7 70.31L40.77 70.31L40.77 76.62L39.7 76.62M40.24 69.19Q39.93 69.19 39.73 69Q39.53 68.81 39.53 68.51L39.53 68.51Q39.53 68.21 39.73 68.02Q39.93 67.82 40.24 67.82L40.24 67.82Q40.55 67.82 40.75 68.02Q40.95 68.21 40.95 68.51L40.95 68.51Q40.95 68.81 40.75 69Q40.55 69.19 40.24 69.19L40.24 69.19M44.91 76.73Q43.53 76.73 42.74 75.85Q41.96 74.98 41.96 73.49L41.96 73.49Q41.96 72.49 42.31 71.75Q42.66 71.02 43.32 70.61Q43.98 70.2 44.87 70.2L44.87 70.2Q45.84 70.2 46.5 70.63Q47.16 71.06 47.48 71.84Q47.8 72.62 47.74 73.66L47.74 73.66L43.01 73.66Q43.02 74.72 43.53 75.31Q44.04 75.89 44.91 75.89L44.91 75.89Q45.58 75.89 46.02 75.59Q46.46 75.29 46.62 74.74L46.62 74.74L47.67 74.74Q47.49 75.67 46.75 76.2Q46.01 76.73 44.91 76.73L44.91 76.73M43.02 72.91L46.67 72.91Q46.62 72.01 46.14 71.53Q45.66 71.04 44.87 71.04L44.87 71.04Q44.08 71.04 43.58 71.54Q43.08 72.04 43.02 72.91L43.02 72.91M51.11 76.74Q49.94 76.74 49.25 76.22Q48.56 75.7 48.5 74.76L48.5 74.76L49.55 74.76Q49.62 75.36 50.04 75.65Q50.45 75.95 51.14 75.95L51.14 75.95Q51.82 75.95 52.19 75.68Q52.55 75.42 52.55 74.93L52.55 74.93Q52.55 74.41 52.21 74.19Q51.87 73.97 50.99 73.85L50.99 73.85Q49.77 73.67 49.23 73.28Q48.69 72.9 48.69 72.06L48.69 72.06Q48.69 71.21 49.34 70.7Q50 70.19 51.08 70.19L51.08 70.19Q52.13 70.19 52.76 70.69Q53.38 71.18 53.45 72.06L53.45 72.06L52.4 72.06Q52.28 70.98 51.05 70.98L51.05 70.98Q50.44 70.98 50.09 71.24Q49.73 71.51 49.73 71.95L49.73 71.95Q49.73 72.42 50.09 72.63Q50.45 72.84 51.36 72.97L51.36 72.97Q52.52 73.13 53.07 73.54Q53.62 73.94 53.62 74.84L53.62 74.84Q53.62 75.74 52.95 76.24Q52.29 76.74 51.11 76.74L51.11 76.74M54.41 78.49Q55.14 77.23 55.29 76.67L55.29 76.67Q55.25 76.68 55.19 76.68L55.19 76.68Q54.9 76.68 54.72 76.5Q54.54 76.32 54.54 76.03L54.54 76.03Q54.54 75.72 54.75 75.52Q54.95 75.32 55.26 75.32L55.26 75.32Q55.6 75.32 55.81 75.57Q56.02 75.82 56.02 76.21L56.02 76.21Q56.02 76.62 55.76 77.24Q55.5 77.87 55.12 78.49L55.12 78.49L54.41 78.49M63.03 76.73Q61.43 76.73 60.58 76Q59.73 75.26 59.67 74L59.67 74L60.82 74Q60.88 74.88 61.43 75.35Q61.98 75.83 63.06 75.83L63.06 75.83Q64.02 75.83 64.57 75.43Q65.12 75.04 65.12 74.32L65.12 74.32Q65.12 73.8 64.89 73.49Q64.67 73.18 64.19 72.98Q63.7 72.79 62.81 72.62L62.81 72.62Q61.3 72.35 60.6 71.81Q59.9 71.28 59.9 70.21L59.9 70.21Q59.9 69.48 60.27 68.93Q60.64 68.38 61.34 68.08Q62.03 67.78 62.96 67.78L62.96 67.78Q64.34 67.78 65.13 68.42Q65.93 69.07 66.02 70.19L66.02 70.19L64.88 70.19Q64.79 69.44 64.28 69.05Q63.76 68.66 62.91 68.66L62.91 68.66Q62.04 68.66 61.55 69.04Q61.06 69.42 61.06 70.07L61.06 70.07Q61.06 70.55 61.28 70.82Q61.49 71.1 61.97 71.27Q62.45 71.45 63.38 71.62L63.38 71.62Q64.34 71.8 64.95 72.06Q65.57 72.32 65.93 72.85Q66.28 73.37 66.28 74.23L66.28 74.23Q66.28 75.38 65.42 76.06Q64.55 76.73 63.03 76.73L63.03 76.73M67.59 76.62L67.59 67.87L69.35 67.87L71.13 72.83L71.85 75.1L71.91 75.1L72.62 72.84L74.39 67.87L76.14 67.87L76.14 76.62L75.03 76.62L75.03 72.19L75.06 69.06L74.99 69.06L74.04 71.93L72.36 76.62L71.37 76.62L69.71 71.95L68.74 69.07L68.68 69.07L68.7 72.2L68.7 76.62L67.59 76.62M77.9 76.62L77.9 67.87L81.42 67.87Q82.84 67.87 83.63 68.59Q84.41 69.31 84.41 70.61L84.41 70.61Q84.41 71.88 83.61 72.6Q82.82 73.32 81.41 73.32L81.41 73.32L79.01 73.32L79.01 76.62L77.9 76.62M79.01 72.38L81.28 72.38Q82.23 72.38 82.74 71.92Q83.26 71.46 83.26 70.63L83.26 70.63Q83.26 69.78 82.74 69.32Q82.23 68.86 81.28 68.86L81.28 68.86L79.01 68.86L79.01 72.38M88.67 76.62L88.67 71.18L87.58 71.18L87.58 70.31L88.67 70.31L88.67 69.18Q88.67 68.44 89.09 68.05Q89.5 67.67 90.27 67.67L90.27 67.67L91.18 67.67L91.18 68.48L90.47 68.48Q90.09 68.48 89.91 68.66Q89.74 68.83 89.74 69.24L89.74 69.24L89.74 70.31L91.07 70.31L91.07 71.18L89.74 71.18L89.74 76.62L88.67 76.62M94.64 76.73Q93.26 76.73 92.47 75.85Q91.68 74.98 91.68 73.49L91.68 73.49Q91.68 72.49 92.04 71.75Q92.39 71.02 93.05 70.61Q93.71 70.2 94.6 70.2L94.6 70.2Q95.57 70.2 96.23 70.63Q96.89 71.06 97.21 71.84Q97.53 72.62 97.47 73.66L97.47 73.66L92.74 73.66Q92.75 74.72 93.26 75.31Q93.77 75.89 94.64 75.89L94.64 75.89Q95.31 75.89 95.75 75.59Q96.18 75.29 96.35 74.74L96.35 74.74L97.4 74.74Q97.22 75.67 96.48 76.2Q95.74 76.73 94.64 76.73L94.64 76.73M92.75 72.91L96.4 72.91Q96.35 72.01 95.87 71.53Q95.39 71.04 94.6 71.04L94.6 71.04Q93.81 71.04 93.31 71.54Q92.81 72.04 92.75 72.91L92.75 72.91M100.89 76.73Q100.13 76.73 99.56 76.33Q98.99 75.94 98.68 75.2Q98.37 74.46 98.37 73.46L98.37 73.46Q98.37 72.46 98.68 71.71Q98.99 70.97 99.56 70.58Q100.13 70.19 100.89 70.19L100.89 70.19Q101.66 70.19 102.22 70.57Q102.78 70.96 103.01 71.6L103.01 71.6L103.05 71.6L103.08 70.31L104.09 70.31L104.09 76.62L103.08 76.62L103.05 75.3L103.01 75.3Q102.77 75.97 102.21 76.35Q101.66 76.73 100.89 76.73L100.89 76.73M101.24 75.82Q101.78 75.82 102.19 75.53Q102.6 75.25 102.82 74.78Q103.04 74.32 103.04 73.76L103.04 73.76L103.04 73.16Q103.04 72.61 102.82 72.14Q102.6 71.66 102.2 71.38Q101.79 71.09 101.25 71.09L101.25 71.09Q100.41 71.09 99.93 71.71Q99.46 72.34 99.46 73.46L99.46 73.46Q99.46 74.57 99.93 75.19Q100.41 75.82 101.24 75.82L101.24 75.82M107.57 76.62Q106.89 76.62 106.55 76.29Q106.22 75.96 106.22 75.23L106.22 75.23L106.22 71.18L105.02 71.18L105.02 70.31L106.22 70.31L106.22 68.46L107.27 68.3L107.27 70.31L108.69 70.31L108.69 71.18L107.27 71.18L107.27 75.05Q107.27 75.4 107.43 75.55Q107.58 75.71 107.92 75.71L107.92 75.71L108.7 75.71L108.7 76.62L107.57 76.62M111.87 76.73Q110.82 76.73 110.25 76.08Q109.68 75.43 109.68 74.21L109.68 74.21L109.68 70.31L110.75 70.31L110.75 73.94Q110.75 74.87 111.11 75.35Q111.47 75.83 112.24 75.83L112.24 75.83Q113.02 75.83 113.51 75.24Q114 74.65 114 73.69L114 73.69L114 70.31L115.06 70.31L115.06 76.62L114.05 76.62L114 75.28L113.96 75.28Q113.72 75.96 113.16 76.34Q112.6 76.73 111.87 76.73L111.87 76.73M116.58 76.62L116.58 70.31L117.54 70.31L117.6 71.47L117.64 71.47Q117.84 70.87 118.34 70.55Q118.83 70.22 119.48 70.22L119.48 70.22L119.76 70.24L119.76 71.27Q119.68 71.26 119.46 71.26L119.46 71.26Q118.65 71.26 118.18 71.69Q117.71 72.12 117.65 72.92L117.65 72.92L117.65 76.62L116.58 76.62M123.32 76.73Q121.94 76.73 121.15 75.85Q120.36 74.98 120.36 73.49L120.36 73.49Q120.36 72.49 120.72 71.75Q121.07 71.02 121.73 70.61Q122.39 70.2 123.28 70.2L123.28 70.2Q124.25 70.2 124.91 70.63Q125.57 71.06 125.89 71.84Q126.21 72.62 126.15 73.66L126.15 73.66L121.42 73.66Q121.43 74.72 121.94 75.31Q122.45 75.89 123.32 75.89L123.32 75.89Q123.99 75.89 124.43 75.59Q124.86 75.29 125.03 74.74L125.03 74.74L126.08 74.74Q125.9 75.67 125.16 76.2Q124.42 76.73 123.32 76.73L123.32 76.73M121.43 72.91L125.08 72.91Q125.03 72.01 124.55 71.53Q124.07 71.04 123.28 71.04L123.28 71.04Q122.49 71.04 121.99 71.54Q121.49 72.04 121.43 72.91L121.43 72.91M129.52 76.74Q128.34 76.74 127.65 76.22Q126.96 75.7 126.9 74.76L126.9 74.76L127.96 74.76Q128.03 75.36 128.45 75.65Q128.86 75.95 129.54 75.95L129.54 75.95Q130.23 75.95 130.59 75.68Q130.96 75.42 130.96 74.93L130.96 74.93Q130.96 74.41 130.62 74.19Q130.28 73.97 129.4 73.85L129.4 73.85Q128.18 73.67 127.64 73.28Q127.1 72.9 127.1 72.06L127.1 72.06Q127.1 71.21 127.75 70.7Q128.4 70.19 129.48 70.19L129.48 70.19Q130.54 70.19 131.16 70.69Q131.79 71.18 131.86 72.06L131.86 72.06L130.8 72.06Q130.68 70.98 129.46 70.98L129.46 70.98Q128.85 70.98 128.49 71.24Q128.14 71.51 128.14 71.95L128.14 71.95Q128.14 72.42 128.5 72.63Q128.86 72.84 129.77 72.97L129.77 72.97Q130.92 73.13 131.48 73.54Q132.03 73.94 132.03 74.84L132.03 74.84Q132.03 75.74 131.36 76.24Q130.7 76.74 129.52 76.74L129.52 76.74M133.61 76.7Q133.3 76.7 133.1 76.51Q132.9 76.32 132.9 76.01L132.9 76.01Q132.9 75.71 133.1 75.51Q133.3 75.31 133.61 75.31L133.61 75.31Q133.92 75.31 134.12 75.5Q134.32 75.7 134.32 76.01L134.32 76.01Q134.32 76.32 134.12 76.51Q133.92 76.7 133.61 76.7L133.61 76.7"/><circle cx="22" cy="98" r="6" fill="#b07219"/><path fill="#59636e" d="M34.19 102.62L34.19 101.71L35.28 101.71Q35.99 101.71 36.27 101.37Q36.56 101.04 36.56 100.28L36.56 100.28L36.56 93.87L37.67 93.87L37.67 100.38Q37.67 101.5 37.15 102.06Q36.63 102.62 35.54 102.62L35.54 102.62L34.19 102.62M41.51 102.73Q40.76 102.73 40.19 102.33Q39.62 101.94 39.3 101.2Q38.99 100.46 38.99 99.46L38.99 99.46Q38.99 98.46 39.3 97.71Q39.62 96.97 40.19 96.58Q40.76 96.19 41.51 96.19L41.51 96.19Q42.28 96.19 42.84 96.57Q43.41 96.96 43.64 97.6L43.64 97.6L43.67 97.6L43.71 96.31L44.72 96.31L44.72 102.62L43.71 102.62L43.67 101.3L43.64 101.3Q43.4 101.97 42.84 102.35Q42.28 102.73 41.51 102.73L41.51 102.73M41.86 101.82Q42.4 101.82 42.81 101.53Q43.23 101.25 43.44 100.78Q43.66 100.32 43.66 99.76L43.66 99.76L43.66 99.16Q43.66 98.61 43.44 98.14Q43.23 97.66 42.82 97.38Q42.41 97.09 41.87 97.09L41.87 97.09Q41.03 97.09 40.56 97.71Q40.08 98.34 40.08 99.46L40.08 99.46Q40.08 100.57 40.56 101.19Q41.03 101.82 41.86 101.82L41.86 101.82M47.9 102.62L45.63 96.31L46.78 96.31L47.96 99.93L48.52 101.66L48.58 101.66L49.12 99.93L50.3 96.31L51.44 96.31L49.18 102.62L47.9 102.62M54.62 102.73Q53.86 102.73 53.29 102.33Q52.72 101.94 52.41 101.2Q52.1 100.46 52.1 99.46L52.1 99.46Q52.1 98.46 52.41 97.71Q52.72 96.97 53.29 96.58Q53.86 96.19 54.62 96.19L54.62 96.19Q55.38 96.19 55.95 96.57Q56.51 96.96 56.74 97.6L56.74 97.6L56.78 97.6L56.81 96.31L57.82 96.31L57.82 102.62L56.81 102.62L56.78 101.3L56.74 101.3Q56.5 101.97 55.94 102.35Q55.38 102.73 54.62 102.73L54.62 102.73M54.96 101.82Q55.5 101.82 55.92 101.53Q56.33 101.25 56.55 100.78Q56.76 100.32 56.76 99.76L56.76 99.76L56.76 99.16Q56.76 98.61 56.55 98.14Q56.33 97.66 55.92 97.38Q55.52 97.09 54.98 97.09L54.98 97.09Q54.14 97.09 53.66 97.71Q53.19 98.34 53.19 99.46L53.19 99.46Q53.19 100.57 53.66 101.19Q54.14 101.82 54.96 101.82L54.96 101.82"/></svg>
